<?xml version="1.0" encoding="UTF-8" standalone="no"?>
<svg
   xmlns:dc="http://purl.org/dc/elements/1.1/"
   xmlns:cc="http://creativecommons.org/ns#"
   xmlns:rdf="http://www.w3.org/1999/02/22-rdf-syntax-ns#"
   xmlns:svg="http://www.w3.org/2000/svg"
   xmlns="http://www.w3.org/2000/svg"
   xmlns:sodipodi="http://sodipodi.sourceforge.net/DTD/sodipodi-0.dtd"
   xmlns:inkscape="http://www.inkscape.org/namespaces/inkscape"
   version="1.1"
   x="0px"
   y="0px"
   width="100px"
   height="100px"
   viewBox="0 0 100 100"
   xml:space="preserve"
   id="svg8"
   sodipodi:docname="email.svg"
   inkscape:version="1.0.1 (3bc2e813f5, 2020-09-07)"><defs
     id="defs12" /><sodipodi:namedview
     pagecolor="#ffffff"
     bordercolor="#666666"
     borderopacity="1"
     objecttolerance="10"
     gridtolerance="10"
     guidetolerance="10"
     inkscape:pageopacity="0"
     inkscape:pageshadow="2"
     inkscape:window-width="1920"
     inkscape:window-height="1001"
     id="namedview10"
     showgrid="false"
     inkscape:zoom="8.3"
     inkscape:cx="35.958321"
     inkscape:cy="50.734493"
     inkscape:window-x="-9"
     inkscape:window-y="-9"
     inkscape:window-maximized="1"
     inkscape:current-layer="svg8" /><g
     id="_x37_7_Essential_Icons"><path
       id="Email"
       d="M88 23H12c-1.1 0-2 .9-2 2v50c0 1.1.9 2 2 2h76c1.1 0 2-.9 2-2V25c0-1.1-.9-2-2-2zm-4.8 4L50 60.2 16.8 27h66.4zM14 29.8L34.2 50 14 70.2V29.8zM16.9 73L37 52.9l11.6 11.6c.8.8 2 .8 2.8 0L63 52.9 83.1 73H16.9zM86 70.2L65.8 50 86 29.8v40.4z" /></g><g
     id="Info"><path
       fill="#00F"
       d="M804-510v1684H-980V-510H804m8-8H-988v1700H812V-518z"
       id="BORDER" /></g><metadata
     id="metadata6"><rdf:RDF><rdf:Description
         about="https://iconscout.com/legal#licenses"
         dc:title="essential,s,email"
         dc:description="essential,s,email"
         dc:publisher="Iconscout"
         dc:date="2017-09-15"
         dc:format="image/svg+xml"
         dc:language="en"><dc:creator><rdf:Bag><rdf:li>Bryn Taylor</rdf:li></rdf:Bag></dc:creator></rdf:Description><cc:Work
         rdf:about=""><dc:format>image/svg+xml</dc:format><dc:type
           rdf:resource="http://purl.org/dc/dcmitype/StillImage" /></cc:Work></rdf:RDF></metadata><path
     style="fill:#999999;stroke-width:0.120482"
     d="m 11.506024,76.847118 c -0.51694,-0.146006 -1.05834,-0.63266 -1.279899,-1.150477 -0.2479158,-0.579417 -0.2479158,-50.813864 0,-51.393282 0.211674,-0.494713 0.743884,-0.97935 1.267757,-1.154436 0.587411,-0.19632 76.424825,-0.19632 77.012236,0 0.523874,0.175086 1.056083,0.659723 1.267757,1.154436 0.247915,0.579418 0.247915,50.813865 0,51.393282 -0.230048,0.537657 -0.768841,1.003598 -1.34014,1.158931 -0.642599,0.174722 -76.30861,0.166406 -76.927711,-0.0085 z M 73.192771,62.951807 C 67.659936,57.418675 63.078525,52.891566 63.011858,52.891566 c -0.06667,0 -2.777633,2.657142 -6.024368,5.904761 -6.463432,6.465192 -6.43858,6.444654 -7.443262,6.151354 -0.437651,-0.127765 -1.335044,-0.973683 -6.473547,-6.102221 -3.281005,-3.274642 -6.019079,-5.953894 -6.084608,-5.953894 -0.06553,0 -4.646009,4.527109 -10.178844,10.060241 l -10.0597,10.060241 H 50 83.252471 Z M 24.216867,60.120482 34.336812,50 24.216867,39.879518 C 18.650898,34.313253 14.05614,29.759036 14.006293,29.759036 c -0.04985,0 -0.09063,9.108434 -0.09063,20.240964 0,11.13253 0.04078,20.240964 0.09063,20.240964 0.04985,0 4.644605,-4.554217 10.210574,-10.120482 z M 86.084337,50 c 0,-11.13253 -0.04078,-20.240964 -0.09063,-20.240964 -0.04985,0 -4.644606,4.554217 -10.210574,10.120482 L 65.663188,50 75.783133,60.120482 c 5.565968,5.566265 10.160727,10.120482 10.210574,10.120482 0.04985,0 0.09063,-9.108434 0.09063,-20.240964 z M 66.656463,43.704983 c 9.09497,-9.094789 16.536308,-16.576716 16.536308,-16.626505 0,-0.04979 -14.936747,-0.09053 -33.192771,-0.09053 -18.256024,0 -33.192771,0.04059 -33.192771,0.0902 0,0.137671 33.054648,33.162814 33.192443,33.162814 0.06627,0 7.561821,-7.441192 16.656791,-16.535981 z"
     id="path14" /><path
     style="fill:#999999;stroke-width:0.0150602"
     d="m 13.933372,58.946844 c -0.01289,-2.950429 -0.01298,-16.946452 -1.14e-4,-17.198796 0.0088,-0.173089 0.01253,-0.192018 0.03759,-0.192018 0.02699,0 0.0278,0.284343 0.0278,9.841868 0,9.535715 -8.6e-4,9.841867 -0.02763,9.841867 -0.02663,0 -0.02799,-0.08267 -0.03764,-2.292921 z"
     id="path16" /></svg>
