<?xml version="1.0" encoding="UTF-8" standalone="no"?>
<svg
   xmlns:dc="http://purl.org/dc/elements/1.1/"
   xmlns:cc="http://creativecommons.org/ns#"
   xmlns:rdf="http://www.w3.org/1999/02/22-rdf-syntax-ns#"
   xmlns:svg="http://www.w3.org/2000/svg"
   xmlns="http://www.w3.org/2000/svg"
   xmlns:sodipodi="http://sodipodi.sourceforge.net/DTD/sodipodi-0.dtd"
   xmlns:inkscape="http://www.inkscape.org/namespaces/inkscape"
   width="1792"
   height="1792"
   viewBox="0 0 1792 1792"
   version="1.1"
   id="svg6"
   sodipodi:docname="facebook.svg"
   inkscape:version="1.0.1 (3bc2e813f5, 2020-09-07)">
  <defs
     id="defs10" />
  <sodipodi:namedview
     pagecolor="#ffffff"
     bordercolor="#666666"
     borderopacity="1"
     objecttolerance="10"
     gridtolerance="10"
     guidetolerance="10"
     inkscape:pageopacity="0"
     inkscape:pageshadow="2"
     inkscape:window-width="1920"
     inkscape:window-height="1001"
     id="namedview8"
     showgrid="false"
     inkscape:zoom="0.23158482"
     inkscape:cx="992.83334"
     inkscape:cy="1336.5226"
     inkscape:window-x="-9"
     inkscape:window-y="-9"
     inkscape:window-maximized="1"
     inkscape:current-layer="svg6" />
  <path
     d="M1376 128q119 0 203.5 84.5t84.5 203.5v960q0 119-84.5 203.5t-203.5 84.5h-188v-595h199l30-232h-229v-148q0-56 23.5-84t91.5-28l122-1v-207q-63-9-178-9-136 0-217.5 80t-81.5 226v171h-200v232h200v595h-532q-119 0-203.5-84.5t-84.5-203.5v-960q0-119 84.5-203.5t203.5-84.5h960z"
     id="path2" />
  <metadata
     id="metadata4">
    <rdf:RDF>
      <rdf:Description
         about="https://iconscout.com/legal#licenses"
         dc:title="Facebook, Social, Media, Fb, Logo, Square"
         dc:description="Facebook, Social, Media, Fb, Logo, Square"
         dc:publisher="Iconscout"
         dc:date="2016-12-14"
         dc:format="image/svg+xml"
         dc:language="en">
        <dc:creator>
          <rdf:Bag>
            <rdf:li>Font Awesome</rdf:li>
          </rdf:Bag>
        </dc:creator>
      </rdf:Description>
      <cc:Work
         rdf:about="">
        <dc:format>image/svg+xml</dc:format>
        <dc:type
           rdf:resource="http://purl.org/dc/dcmitype/StillImage" />
      </cc:Work>
    </rdf:RDF>
  </metadata>
  <path
     style="fill:#999999;stroke-width:2.15904"
     d="m 379.99036,1660.9713 c -64.83329,-8.4033 -116.65704,-34.3307 -165.31873,-82.7089 -45.23849,-44.975 -68.58726,-88.1857 -81.23137,-150.332 -3.69338,-18.1531 -3.89809,-46.0885 -3.89809,-531.9304 0,-485.84192 0.20471,-513.77726 3.89809,-531.93037 11.92683,-58.62082 34.8433,-102.67164 75.58063,-145.28364 42.16258,-44.10282 90.25694,-71.38801 148.29959,-84.13423 17.63272,-3.87216 38.74017,-4.03007 538.67952,-4.03007 499.9393,0 521.0468,0.15791 538.6795,4.03007 58.2622,12.79444 105.9714,39.85815 148.2805,84.11424 40.7573,42.63286 63.671,86.67327 75.5997,145.30363 3.6934,18.15311 3.8981,46.08845 3.8981,531.93037 0,485.8419 -0.2046,513.7773 -3.8981,531.9304 -11.9287,58.6303 -34.8424,102.6707 -75.5997,145.3036 -41.3536,43.2566 -86.0068,69.0899 -143.9624,83.2868 -17.1734,4.2069 -25.8035,4.5505 -134.4,5.3516 l -116.0482,0.856 V 1366.8267 1070.925 l 99.7475,-0.5613 99.7475,-0.5613 14.6007,-112.26987 c 8.0303,-61.74843 14.6369,-114.4559 14.6814,-117.12771 l 0.081,-4.85783 H 1302.7938 1188.18 l 0.9466,-89.06024 c 0.8093,-76.14975 1.4891,-90.93813 4.6897,-102.01446 4.9701,-17.20011 15.528,-36.7297 23.4686,-43.41127 18.0581,-15.1949 45.5819,-22.43933 85.2538,-22.43933 14.1078,0 47.6678,-0.64076 74.5777,-1.42393 l 48.9273,-1.42391 V 471.68387 367.59389 l -12.4145,-1.33245 c -58.4093,-6.26909 -163.6044,-9.28992 -201.3301,-5.78151 -82.5018,7.6725 -142.8762,35.22828 -191.4649,87.38746 -36.23006,38.89243 -57.43376,84.65441 -69.08791,149.1061 -2.84503,15.73411 -3.6912,40.2795 -4.44714,129.00241 l -0.93357,109.57109 H 846.15612 745.94699 v 117.66747 117.66744 h 100.39518 100.39518 v 295.788 295.7879 l -280.13494,-0.3235 c -154.07422,-0.1779 -283.04964,-0.7012 -286.61205,-1.163 z"
     id="path12" />
  <path
     style="fill:#999999;stroke-width:0.381667"
     d="m 484.71171,129.4432 v -1.24042 h 411.43732 411.43737 v 1.24042 1.24042 H 896.14903 484.71171 Z"
     id="path14" />
  <path
     style="fill:#999999;stroke-width:0.190834"
     d="m 265.84392,170.75522 0.0582,-0.99455 4.19834,-2.5267 c 35.55426,-21.39769 74.80561,-34.05252 117.4581,-37.8691 4.46181,-0.39925 7.86865,-0.64112 14.02627,-0.99583 2.31222,-0.13319 18.0238,-0.24035 43.36695,-0.29576 l 39.7411,-0.0869 v 1.35066 1.35067 l 13.50148,0.0321 c 7.58946,0.018 -0.0774,0.0944 -17.50898,0.1744 -70.2962,0.32255 -100.69182,0.9063 -113.73685,2.18434 -5.46396,0.53531 -9.85851,1.39338 -19.17878,3.74479 -27.80877,7.01589 -52.83213,17.32175 -76.52429,31.5165 -2.09917,1.25769 -4.18639,2.53942 -4.63826,2.84831 l -0.82158,0.56161 z"
     id="path16" />
  <path
     style="fill:#999999;stroke-width:0.26988"
     d="m 128.09074,445.56084 c 0.003,-40.8739 0.22888,-48.42065 1.91061,-63.89397 5.27829,-48.56487 22.37155,-92.88569 50.97825,-132.18059 21.15702,-29.06184 49.51056,-56.26732 78.94457,-75.74804 6.01196,-3.97898 5.80241,-3.87434 5.80241,-2.89757 0,0.7135 -0.48889,1.10574 -5.86988,4.70939 -16.03084,10.73585 -28.85681,21.26855 -43.61996,35.82074 -36.75842,36.23316 -59.98784,73.28824 -74.10412,118.20932 -4.35306,13.8524 -8.82485,32.4828 -9.84627,41.02169 -1.29005,10.78445 -1.93794,33.65872 -2.1824,77.0506 -0.0786,13.95277 -0.21245,26.97783 -0.29743,28.94458 l -0.15452,3.5759 h -0.78199 -0.78199 z"
     id="path18" />
  <path
     style="fill:#999999;stroke-width:0.26988"
     d="M 128.25561,619.33825 V 480.21536 h 0.78787 0.78786 l -0.11742,37.71566 c -0.0646,20.74362 -0.1913,83.34892 -0.28161,139.12289 -0.16019,98.93144 -0.17656,101.40723 -0.67045,101.40723 -0.49442,0 -0.50625,-3.24962 -0.50625,-139.12289 z"
     id="path20" />
  <path
     style="fill:#999999;stroke-width:0.539759"
     d="m 1419.6674,132.53837 c -8.4794,-0.73331 -52.3855,-1.56909 -82.7181,-1.57459 l -29.2819,-0.005 v -1.39256 -1.39257 l 44.665,0.23552 c 36.7443,0.19375 46.1487,0.39488 53.0313,1.13415 9.0662,0.97381 23.3414,2.99234 23.7045,3.35181 0.3018,0.29884 -3.4833,0.15532 -9.4008,-0.35644 z"
     id="path22" />
  <path
     style="fill:#999999;stroke-width:0.13494"
     d="m 1154.6191,176.61001 v -45.87952 l 16.6314,0.002 c 32.697,0.005 134.3036,0.26392 156.4963,0.39947 67.3759,0.4115 89.8126,0.98294 101.2723,2.57931 3.0414,0.42367 8.9554,1.68522 14.7085,3.13755 l 1.7542,0.44284 0.034,42.59877 0.034,42.59878 h -145.4653 -145.4653 z"
     id="path24" />
  <path
     style="fill:#999999;stroke-width:0.13494"
     d="m 1221.9541,130.72979 c -10.4275,-0.0375 4.5711,-0.0682 33.3301,-0.0682 28.759,-2e-5 46.8848,0.0155 40.2795,0.0344 -29.5234,0.0846 -56.0941,0.0968 -73.6096,0.0338 z"
     id="path26" />
  <path
     style="fill:#999999;stroke-width:0.13494"
     d="m 1285.804,130.76426 c 3.9834,-0.0199 10.5415,-0.0199 14.5735,-1e-5 4.0319,0.0198 0.7727,0.0361 -7.2427,0.0361 -8.0154,0 -11.3143,-0.0162 -7.3308,-0.0361 z"
     id="path28" />
  <path
     style="fill:#999999;stroke-width:0.190834"
     d="m 594.29182,1662.9933 v -0.8864 l 97.94536,0.1231 c 53.86995,0.068 133.17564,0.1785 176.23487,0.2461 l 78.2895,0.1229 v -41.1522 -41.1523 h 0.5725 0.5725 v 41.7926 41.7926 H 771.09918 594.29182 Z"
     id="path30" />
  <path
     style="fill:#999999;stroke-width:0.26988"
     d="m 402.75845,1663.603 c -64.31942,-2.7628 -120.05905,-24.124 -168.69793,-64.6503 -12.05845,-10.0472 -24.05679,-21.6823 -34.69463,-33.6442 l -3.33515,-3.7503 v -1.3882 -1.3882 l 0.77228,0.8044 c 0.42475,0.4425 2.63654,2.8691 4.91509,5.3924 5.5593,6.1567 18.91667,19.4789 25.07889,25.0129 21.80566,19.5827 42.33725,33.7741 65.30148,45.1364 25.83785,12.7841 52.38881,20.8405 83.67202,25.3888 4.72245,0.6865 4.7256,0.6866 33.73494,0.9426 15.95662,0.1408 64.01879,0.3402 106.80482,0.4432 l 77.79277,0.1873 v 0.8998 0.8999 l -93.31085,-0.042 c -51.32096,-0.023 -95.43614,-0.1331 -98.03373,-0.2447 z"
     id="path32" />
  <path
     style="fill:#999999;stroke-width:0.13494"
     d="m 129.25349,1403.7715 c 0,-0.096 -0.0887,-1.2342 -0.19701,-2.5302 -0.20176,-2.413 -0.4881,-7.0216 -0.77101,-12.4092 -0.11783,-2.2441 -0.17185,-23.6736 -0.20707,-82.1446 l -0.0476,-79.1084 h 0.81378 0.81377 l 0.002,14.7422 c 0.002,19.5547 0.22937,74.3163 0.40157,96.853 0.23493,30.7468 0.61482,54.0558 1.02538,62.9156 l 0.086,1.8554 h -0.95976 c -0.69321,0 -0.95975,-0.048 -0.95975,-0.1738 z"
     id="path34" />
  <path
     style="fill:#999999;stroke-width:0.13494"
     d="M 128.10009,966.88744 V 878.7043 h 0.6747 0.6747 v 88.18314 88.18316 h -0.6747 -0.6747 z"
     id="path36" />
</svg>
