<?xml version="1.0" encoding="UTF-8" standalone="no"?>
<svg
   xmlns:dc="http://purl.org/dc/elements/1.1/"
   xmlns:cc="http://creativecommons.org/ns#"
   xmlns:rdf="http://www.w3.org/1999/02/22-rdf-syntax-ns#"
   xmlns:svg="http://www.w3.org/2000/svg"
   xmlns="http://www.w3.org/2000/svg"
   xmlns:sodipodi="http://sodipodi.sourceforge.net/DTD/sodipodi-0.dtd"
   xmlns:inkscape="http://www.inkscape.org/namespaces/inkscape"
   data-name="Layer 1"
   viewBox="0 0 24 24"
   version="1.1"
   id="svg4"
   sodipodi:docname="instagram.svg"
   inkscape:version="1.0.1 (3bc2e813f5, 2020-09-07)">
  <metadata
     id="metadata10">
    <rdf:RDF>
      <cc:Work
         rdf:about="">
        <dc:format>image/svg+xml</dc:format>
        <dc:type
           rdf:resource="http://purl.org/dc/dcmitype/StillImage" />
      </cc:Work>
    </rdf:RDF>
  </metadata>
  <defs
     id="defs8" />
  <sodipodi:namedview
     pagecolor="#ffffff"
     bordercolor="#666666"
     borderopacity="1"
     objecttolerance="10"
     gridtolerance="10"
     guidetolerance="10"
     inkscape:pageopacity="0"
     inkscape:pageshadow="2"
     inkscape:window-width="1920"
     inkscape:window-height="1001"
     id="namedview6"
     showgrid="false"
     inkscape:zoom="22.627417"
     inkscape:cx="11.360045"
     inkscape:cy="12.660985"
     inkscape:window-x="-9"
     inkscape:window-y="-9"
     inkscape:window-maximized="1"
     inkscape:current-layer="svg4" />
  <path
     d="M17.34,5.46h0a1.2,1.2,0,1,0,1.2,1.2A1.2,1.2,0,0,0,17.34,5.46Zm4.6,2.42a7.59,7.59,0,0,0-.46-2.43,4.94,4.94,0,0,0-1.16-1.77,4.7,4.7,0,0,0-1.77-1.15,7.3,7.3,0,0,0-2.43-.47C15.06,2,14.72,2,12,2s-3.06,0-4.12.06a7.3,7.3,0,0,0-2.43.47A4.78,4.78,0,0,0,3.68,3.68,4.7,4.7,0,0,0,2.53,5.45a7.3,7.3,0,0,0-.47,2.43C2,8.94,2,9.28,2,12s0,3.06.06,4.12a7.3,7.3,0,0,0,.47,2.43,4.7,4.7,0,0,0,1.15,1.77,4.78,4.78,0,0,0,1.77,1.15,7.3,7.3,0,0,0,2.43.47C8.94,22,9.28,22,12,22s3.06,0,4.12-.06a7.3,7.3,0,0,0,2.43-.47,4.7,4.7,0,0,0,1.77-1.15,4.85,4.85,0,0,0,1.16-1.77,7.59,7.59,0,0,0,.46-2.43c0-1.06.06-1.4.06-4.12S22,8.94,21.94,7.88ZM20.14,16a5.61,5.61,0,0,1-.34,1.86,3.06,3.06,0,0,1-.75,1.15,3.19,3.19,0,0,1-1.15.75,5.61,5.61,0,0,1-1.86.34c-1,.05-1.37.06-4,.06s-3,0-4-.06A5.73,5.73,0,0,1,6.1,19.8,3.27,3.27,0,0,1,5,19.05a3,3,0,0,1-.74-1.15A5.54,5.54,0,0,1,3.86,16c0-1-.06-1.37-.06-4s0-3,.06-4A5.54,5.54,0,0,1,4.21,6.1,3,3,0,0,1,5,5,3.14,3.14,0,0,1,6.1,4.2,5.73,5.73,0,0,1,8,3.86c1,0,1.37-.06,4-.06s3,0,4,.06a5.61,5.61,0,0,1,1.86.34A3.06,3.06,0,0,1,19.05,5,3.06,3.06,0,0,1,19.8,6.1,5.61,5.61,0,0,1,20.14,8c.05,1,.06,1.37.06,4S20.19,15,20.14,16ZM12,6.87A5.13,5.13,0,1,0,17.14,12,5.12,5.12,0,0,0,12,6.87Zm0,8.46A3.33,3.33,0,1,1,15.33,12,3.33,3.33,0,0,1,12,15.33Z"
     id="path2" />
  <path
     style="fill:#999999;stroke-width:0.0289157"
     d="M 11.46506,17.086026 C 10.08718,16.930084 8.8076814,16.211761 7.9690745,15.123346 6.4664428,13.173104 6.5519515,10.484236 8.175789,8.6230895 8.8316797,7.8713465 9.7845372,7.2889341 10.756884,7.0454538 c 0.468798,-0.117389 0.722276,-0.1470233 1.257574,-0.1470233 0.872217,0 1.535465,0.1567243 2.310486,0.545963 2.114483,1.0619573 3.219548,3.4796975 2.643905,5.7845225 -0.238852,0.956341 -0.710801,1.766856 -1.431151,2.457831 -0.399178,0.3829 -0.761441,0.637317 -1.253361,0.880231 -0.910588,0.449657 -1.870641,0.626409 -2.819277,0.519048 z m 0.86747,-1.76169 c 1.363015,-0.143291 2.501273,-1.08642 2.875443,-2.382511 0.216285,-0.749195 0.160222,-1.591652 -0.153182,-2.301863 -0.444177,-1.0065563 -1.397186,-1.7480314 -2.490936,-1.9380371 -0.303002,-0.052637 -0.885189,-0.046228 -1.194563,0.013152 -1.223057,0.2347463 -2.2320923,1.1510959 -2.5766016,2.3399251 -0.3364805,1.161124 -0.017487,2.44076 0.8190896,3.285758 0.618623,0.624851 1.422982,0.97074 2.344847,1.008328 0.05566,0.0023 0.224819,-0.0089 0.375903,-0.02475 z"
     id="path12" />
  <path
     style="fill:#999999;stroke-width:0.0289157"
     d="m 16.9655,7.7808108 c -0.21196,-0.078573 -0.32389,-0.1528485 -0.476989,-0.3165237 -0.449603,-0.4806619 -0.439815,-1.1743765 0.0231,-1.6372934 0.578378,-0.5783777 1.51919,-0.415873 1.885518,0.3256818 0.104112,0.2107532 0.108893,0.2332162 0.108893,0.5116226 0,0.2730569 -0.0062,0.3036979 -0.09888,0.4920167 C 18.28005,7.4144432 18.081979,7.611927 17.833468,7.7282896 17.578495,7.847678 17.20659,7.8701821 16.9655,7.7808108 Z"
     id="path14" />
  <path
     style="fill:#999999;stroke-width:0.0289157"
     d="M 7.9662651,21.931449 C 7.0741729,21.881187 6.6334849,21.815227 6.0234029,21.640651 5.1724334,21.397145 4.4944273,21.034965 3.9236797,20.519011 3.0232834,19.705057 2.526428,18.812991 2.2395768,17.495334 2.0500739,16.624848 2.0240964,15.96235 2.0240964,12 c 0,-4.0446708 0.024945,-4.6402216 0.2335159,-5.5750898 C 2.514192,5.2748545 2.9622711,4.425459 3.696821,3.6966923 4.3565964,3.0421114 5.0398812,2.6468011 5.9905041,2.3696956 7.0563438,2.0590045 7.6439205,2.0253348 12,2.0253348 c 4.536099,0 5.103831,0.038347 6.256328,0.4225846 0.878666,0.2929435 1.468595,0.6558791 2.081759,1.2807388 0.800466,0.8157336 1.235454,1.7162131 1.475587,3.0546454 0.125398,0.6989329 0.176591,2.0395784 0.175461,4.5950094 -8.88e-4,2.006685 -0.06528,5.092351 -0.113739,5.450603 -0.189636,1.401846 -0.61594,2.426339 -1.350308,3.245055 -0.717519,0.799932 -1.501605,1.276291 -2.597377,1.577994 -1.076397,0.29637 -1.612844,0.324829 -6.028916,0.319845 -2.2439064,-0.0025 -3.4877027,-0.0153 -3.9325299,-0.04036 z m 6.7373489,-1.77715 c 1.844164,-0.04117 2.241599,-0.08086 2.93494,-0.293067 0.560971,-0.171696 0.968767,-0.408213 1.378081,-0.799268 0.41039,-0.392085 0.670213,-0.805068 0.84805,-1.347956 0.141058,-0.430609 0.241422,-0.950414 0.275167,-1.425135 0.05307,-0.746603 0.09208,-3.646197 0.07404,-5.503331 C 20.187024,8.0203825 20.145914,7.2921062 19.979902,6.6403871 19.807754,5.9645815 19.579625,5.5350804 19.147858,5.0738897 18.532137,4.4162096 17.864194,4.0840724 16.818762,3.9157368 16.025537,3.7880117 12.047672,3.7459803 8.9060241,3.8321282 7.3538229,3.8746915 7.1929859,3.887742 6.6644695,4.0140097 5.9161706,4.1927857 5.5351356,4.4231835 4.9012048,5.0801907 4.4769406,5.5198988 4.3138262,5.7718147 4.1473356,6.2444756 3.8814108,6.9994256 3.8204867,7.6736845 3.7866594,10.236145 c -0.020416,1.54653 0.026051,5.248496 0.074774,5.957113 0.06287,0.914373 0.3675589,1.884687 0.7702842,2.453051 0.3003046,0.423818 0.8499115,0.885152 1.3118696,1.101166 0.2308913,0.107967 0.7519946,0.244777 1.1575313,0.303898 0.292874,0.0427 1.4062924,0.09616 2.3253874,0.111658 1.2108261,0.02042 4.1923911,0.01548 5.2771081,-0.0087 z"
     id="path16" />
  <path
     style="fill:#999999;stroke-width:0.00390625"
     d=""
     id="path18" />
  <path
     style="fill:#999999;stroke-width:0.00390625"
     d="M 8.4751675,15.681709 C 7.9192651,15.149209 7.4890924,14.493906 7.2180783,13.766722 7.0408443,13.291169 6.9415665,12.817285 6.9066957,12.280394 c -0.00663,-0.10215 -0.00663,-0.454064 9.9e-6,-0.558594 0.022225,-0.349957 0.069942,-0.657871 0.1512782,-0.976182 0.01175,-0.04598 0.021363,-0.08422 0.021363,-0.08496 0,-7.46e-4 0.4168065,-0.0014 0.9262368,-0.0014 0.8803401,0 0.926131,3.39e-4 0.9241004,0.0068 -0.00118,0.0038 -0.014643,0.03741 -0.029929,0.07479 -0.2470049,0.603939 -0.3061961,1.304555 -0.1657033,1.961344 0.1237481,0.578509 0.3907338,1.10591 0.7771412,1.535156 0.060315,0.067 0.2104918,0.214556 0.279091,0.274216 0.2281441,0.198416 0.4891431,0.371615 0.7421881,0.492518 0.427565,0.204288 0.877318,0.317341 1.366183,0.343414 0.113645,0.0061 0.253939,-0.0014 0.459989,-0.02446 0.103023,-0.01153 0.288734,-0.04158 0.327148,-0.05294 0.0065,-0.0019 0.0068,0.01164 0.0068,0.246289 v 0.24831 l -2.06543,-5.1e-5 -2.0654298,-5e-5 -0.086601,-0.08296 z"
     id="path20" />
  <path
     style="fill:#999999;stroke-width:0.00390625"
     d=""
     id="path22" />
  <path
     style="fill:#999999;stroke-width:0.00390625"
     d="M 8.4551394,15.694906 C 8.3497827,15.594158 8.2241932,15.461409 8.1239598,15.344847 7.1945771,14.264071 6.7564374,12.847941 6.9135834,11.432738 c 0.027414,-0.24688 0.084946,-0.550928 0.1446865,-0.764648 0.00147,-0.0053 0.00551,-0.0088 0.010077,-0.0088 0.00546,0 0.00702,0.0019 0.0055,0.0068 -0.019103,0.06165 -0.072004,0.295015 -0.09364,0.413086 -0.059197,0.32304 -0.082378,0.583096 -0.082348,0.923828 2e-5,0.232677 0.00586,0.343987 0.029522,0.5625 0.076809,0.709371 0.3197763,1.427556 0.6935645,2.050097 0.2476348,0.412434 0.5375454,0.774333 0.8771289,1.094931 0.056725,0.05355 0.05724,0.05419 0.043761,0.05419 -0.01235,0 -0.020546,-0.0066 -0.086698,-0.06986 z"
     id="path24" />
  <path
     style="fill:#999999;stroke-width:0.00390625"
     d=""
     id="path26" />
</svg>
