<?xml version="1.0" encoding="UTF-8" standalone="no"?>
<svg
   xmlns:dc="http://purl.org/dc/elements/1.1/"
   xmlns:cc="http://creativecommons.org/ns#"
   xmlns:rdf="http://www.w3.org/1999/02/22-rdf-syntax-ns#"
   xmlns:svg="http://www.w3.org/2000/svg"
   xmlns="http://www.w3.org/2000/svg"
   xmlns:sodipodi="http://sodipodi.sourceforge.net/DTD/sodipodi-0.dtd"
   xmlns:inkscape="http://www.inkscape.org/namespaces/inkscape"
   width="24"
   height="24"
   viewBox="0 0 24 24"
   version="1.1"
   id="svg4"
   sodipodi:docname="location.svg"
   inkscape:version="1.0.1 (3bc2e813f5, 2020-09-07)">
  <metadata
     id="metadata10">
    <rdf:RDF>
      <cc:Work
         rdf:about="">
        <dc:format>image/svg+xml</dc:format>
        <dc:type
           rdf:resource="http://purl.org/dc/dcmitype/StillImage" />
      </cc:Work>
    </rdf:RDF>
  </metadata>
  <defs
     id="defs8" />
  <sodipodi:namedview
     pagecolor="#ffffff"
     bordercolor="#666666"
     borderopacity="1"
     objecttolerance="10"
     gridtolerance="10"
     guidetolerance="10"
     inkscape:pageopacity="0"
     inkscape:pageshadow="2"
     inkscape:window-width="1920"
     inkscape:window-height="1001"
     id="namedview6"
     showgrid="false"
     inkscape:zoom="34.583333"
     inkscape:cx="12"
     inkscape:cy="5.0024096"
     inkscape:window-x="-9"
     inkscape:window-y="-9"
     inkscape:window-maximized="1"
     inkscape:current-layer="svg4" />
  <path
     d="M12 0c-4.198 0-8 3.403-8 7.602 0 4.198 3.469 9.21 8 16.398 4.531-7.188 8-12.2 8-16.398 0-4.199-3.801-7.602-8-7.602zm0 11c-1.657 0-3-1.343-3-3s1.343-3 3-3 3 1.343 3 3-1.343 3-3 3z"
     id="path2" />
  <path
     style="fill:#808080;stroke-width:0.0289157"
     d="M 10.94435,22.300648 C 7.7005336,17.178899 6.7339456,15.555439 5.7841789,13.633735 4.5713308,11.179727 4.0306958,9.3403553 4.0248862,7.6481928 4.0214874,6.658233 4.1856941,5.8191048 4.5577534,4.9251372 5.5417528,2.5608269 7.7703565,0.74438712 10.366265,0.19086738 c 1.050966,-0.22409503 2.216231,-0.22488216 3.262658,-0.002204 0.909958,0.19363798 1.907875,0.60183365 2.708092,1.10773952 1.821774,1.151744 3.119502,2.9816334 3.51002,4.9493801 0.189598,0.9553461 0.175662,1.9781515 -0.04176,3.0650603 -0.436109,2.1801187 -1.587802,4.6541927 -4.019715,8.6351767 -0.540505,0.884794 -3.715051,5.934413 -3.781863,6.015654 -0.0023,0.0028 -0.478989,-0.744685 -1.059345,-1.661026 z M 12.743301,10.918584 C 13.799639,10.650477 14.655609,9.7997014 14.91656,8.7585097 15.125401,7.9252378 14.987028,7.0729293 14.527395,6.3614458 14.029378,5.5905467 13.192629,5.0830057 12.291931,5.0054961 11.362016,4.9254723 10.51522,5.2270976 9.871392,5.8676819 8.7211561,7.0121237 8.6911105,8.88036 9.8039691,10.060049 c 0.4721669,0.500522 1.1111369,0.83292 1.7839739,0.92804 0.303279,0.04288 0.839732,0.0106 1.155358,-0.06951 z"
     id="path12" />
  <path
     style="fill:#999999;stroke-width:0.0289157"
     d="M 11.812365,23.633056 C 9.9806284,20.779869 7.8046268,17.266774 6.9979035,15.860241 4.2693542,11.102977 3.5116452,8.0854253 4.3840368,5.4506024 4.6454812,4.6609801 5.1336179,3.7669246 5.6707082,3.0939759 5.9233891,2.7773788 6.5809891,2.1199374 6.8963855,1.8685943 8.530309,0.56650138 10.573647,-0.09040118 12.53363,0.05630415 c 1.061568,0.07945864 1.959846,0.32279598 2.944253,0.79757794 0.919873,0.44365681 1.547877,0.88670191 2.250247,1.58750671 0.658222,0.6567553 1.098945,1.2684245 1.501509,2.0839124 0.800996,1.6226021 0.939241,3.2439704 0.448717,5.2626506 -0.484022,1.9919242 -1.625338,4.3916782 -3.754351,7.8939762 -0.670077,1.102301 -3.828364,6.129518 -3.893132,6.196911 -0.02962,0.03082 -0.07034,-0.01498 -0.218508,-0.245783 z m 0.694579,-12.658079 c 1.118311,-0.168583 2.099658,-1.0431221 2.40033,-2.1390841 0.03366,-0.1227033 0.05439,-0.2408582 0.04606,-0.2625666 -0.0083,-0.021708 -0.0018,-0.043928 0.01458,-0.049376 0.04803,-0.016009 0.06635,-0.6762437 0.02635,-0.9497645 C 14.926878,7.1133282 14.724525,6.6065731 14.458044,6.2313253 14.307236,6.0189623 13.906768,5.6317495 13.691566,5.4902163 13.33921,5.2584798 12.698189,5.0051864 12.556627,5.0417552 c -0.02783,0.00719 -0.0506,7.518e-4 -0.0506,-0.014308 0,-0.028912 -0.04406,-0.031669 -0.506024,-0.031669 -0.461964,0 -0.506024,0.00276 -0.506024,0.031669 0,0.015059 -0.02277,0.021498 -0.0506,0.014308 -0.08136,-0.021019 -0.548269,0.1272399 -0.800931,0.2543234 -0.7916857,0.3982013 -1.3661849,1.1193429 -1.5858714,1.9906684 -0.090044,0.3571344 -0.089041,1.0633538 0.00202,1.425744 0.1731473,0.6890264 0.5551339,1.2731812 1.1002334,1.682536 0.393708,0.295663 0.789015,0.478344 1.2484,0.576914 0.248324,0.05328 0.757084,0.05469 1.099716,0.003 z"
     id="path14" />
</svg>
