<?xml version="1.0" encoding="UTF-8" standalone="no"?>
<svg
   xmlns:dc="http://purl.org/dc/elements/1.1/"
   xmlns:cc="http://creativecommons.org/ns#"
   xmlns:rdf="http://www.w3.org/1999/02/22-rdf-syntax-ns#"
   xmlns:svg="http://www.w3.org/2000/svg"
   xmlns="http://www.w3.org/2000/svg"
   xmlns:sodipodi="http://sodipodi.sourceforge.net/DTD/sodipodi-0.dtd"
   xmlns:inkscape="http://www.inkscape.org/namespaces/inkscape"
   width="133.37531mm"
   height="68.550041mm"
   viewBox="0 0 133.37531 68.550042"
   version="1.1"
   id="svg8"
   inkscape:version="1.0.1 (3bc2e813f5, 2020-09-07)"
   sodipodi:docname="logo.svg"
   inkscape:export-filename="D:\Subjects\Web Fundamental\Assignment\logo.png"
   inkscape:export-xdpi="320"
   inkscape:export-ydpi="320">
  <defs
     id="defs2">
    <rect
       x="23.355394"
       y="53.681589"
       width="162.52976"
       height="68.41369"
       id="rect41" />
    <rect
       x="63.342876"
       y="19.243406"
       width="88.466217"
       height="27.528761"
       id="rect110" />
    <inkscape:perspective
       sodipodi:type="inkscape:persp3d"
       inkscape:vp_x="651.17021 : 642.42894 : 1"
       inkscape:vp_y="0 : -3779.5275 : 0"
       inkscape:vp_z="-411.22745 : -4.7139255 : 1"
       inkscape:persp3d-origin="612.11427 : 615.22985 : 1"
       id="perspective82" />
    <inkscape:perspective
       sodipodi:type="inkscape:persp3d"
       inkscape:vp_x="179.88926 : -136.26842 : 1"
       inkscape:vp_y="0 : 1000 : 0"
       inkscape:vp_z="-101.20345 : 34.954803 : 1"
       inkscape:persp3d-origin="169.5557 : -129.07199 : 1"
       id="perspective52" />
  </defs>
  <sodipodi:namedview
     id="base"
     pagecolor="#ffffff"
     bordercolor="#666666"
     borderopacity="1.0"
     inkscape:pageopacity="0.0"
     inkscape:pageshadow="2"
     inkscape:zoom="1.4"
     inkscape:cx="231.14059"
     inkscape:cy="223.43279"
     inkscape:document-units="mm"
     inkscape:current-layer="layer1"
     inkscape:document-rotation="0"
     showgrid="false"
     inkscape:window-width="1920"
     inkscape:window-height="1001"
     inkscape:window-x="-9"
     inkscape:window-y="-9"
     inkscape:window-maximized="1" />
  <metadata
     id="metadata5">
    <rdf:RDF>
      <cc:Work
         rdf:about="">
        <dc:format>image/svg+xml</dc:format>
        <dc:type
           rdf:resource="http://purl.org/dc/dcmitype/StillImage" />
        <dc:title />
      </cc:Work>
    </rdf:RDF>
  </metadata>
  <g
     inkscape:label="Layer 1"
     inkscape:groupmode="layer"
     id="layer1"
     transform="translate(-47.734858,-60.674149)">
    <ellipse
       style="fill:none;stroke-width:0.264583"
       id="path46"
       cx="111.69196"
       cy="145.70982"
       rx="89.01339"
       ry="70.114586" />
    <rect
       style="fill:#1a1a1a;stroke-width:0.267858"
       id="rect90"
       width="99.958801"
       height="43.828236"
       x="47.841244"
       y="60.674149" />
    <rect
       style="fill:#00ffff;stroke-width:0.324104"
       id="rect94"
       width="86.160027"
       height="29.693026"
       x="54.691017"
       y="67.860352" />
    <path
       style="fill:none;stroke:#000000;stroke-width:0.264583px;stroke-linecap:butt;stroke-linejoin:miter;stroke-opacity:1"
       d="m 47.841244,104.50238 18.174329,24.5888 99.424267,-1.06907 -17.6398,-23.51973"
       id="path100" />
    <path
       style="fill:#b3b3b3;stroke-width:0.53454"
       d="m 57.664996,116.98899 c -4.777444,-6.45692 -8.68626,-11.88418 -8.68626,-12.06058 0,-0.1764 22.127117,-0.32073 49.17137,-0.32073 h 49.171364 l 8.52962,11.35896 8.52961,11.35895 -13.46787,0.33074 c -7.40734,0.1819 -29.46396,0.49763 -49.01473,0.70162 l -35.546844,0.37088 z"
       id="path102" />
    <path
       style="fill:#b3b3b3;stroke-width:0.0472469"
       d="m 96.875782,128.54737 c 0,-0.10757 0.376761,-0.12096 4.228608,-0.1503 11.54525,-0.0879 40.75102,-0.49684 48.87705,-0.68434 5.54903,-0.12803 14.38849,-0.34678 14.40047,-0.35637 0.008,-0.006 -3.82793,-5.12698 -8.52334,-11.37984 l -8.5371,-11.36884 h -25.22284 c -16.78374,0 -25.222848,-0.0158 -25.222848,-0.0473 0,-0.0314 8.505398,-0.0472 25.421688,-0.0472 14.29947,0 25.41063,0.0179 25.39642,0.0409 -0.0139,0.0225 3.8957,5.26868 8.688,11.65821 l 8.71328,11.61731 -0.38713,0.0315 c -0.21292,0.0173 -2.90658,0.0551 -5.9859,0.0841 -3.07933,0.0289 -7.41661,0.073 -9.6384,0.0979 -7.10586,0.0797 -12.57874,0.13856 -30.52157,0.32804 -9.65375,0.10195 -18.48245,0.1994 -19.619331,0.21656 -1.827173,0.0276 -2.067057,0.0229 -2.067057,-0.0402 z"
       id="path104" />
    <path
       style="fill:#b3b3b3;stroke-width:0.0472469"
       d="m 57.607986,117.44326 c -4.671859,-6.32106 -8.734444,-11.81707 -9.027965,-12.21335 l -0.533675,-0.72052 24.509555,0.003 c 13.712346,0.002 24.467926,0.0212 24.415062,0.0439 -0.05197,0.0223 -3.326191,0.0423 -7.276042,0.0444 -3.94985,0.002 -11.688913,0.0245 -17.197916,0.0496 -15.526139,0.0709 -23.406139,0.16576 -23.523519,0.28314 -0.05015,0.0501 0.128897,0.33453 0.907743,1.44181 1.719794,2.44501 4.436785,6.17335 8.676584,11.90625 1.24917,1.68908 3.503906,4.73794 5.010526,6.77524 l 2.739305,3.70419 3.330916,-0.0314 c 1.832002,-0.0173 8.433594,-0.085 14.670202,-0.15061 6.236604,-0.0656 11.620256,-0.1131 11.963667,-0.10563 0.477985,0.0104 0.615984,0.0271 0.588547,0.0714 -0.03613,0.0583 -0.172191,0.0602 -17.584023,0.24955 -2.507636,0.0273 -6.324015,0.0701 -8.480841,0.0952 -2.156827,0.0251 -4.095278,0.0458 -4.30767,0.0459 l -0.386165,2.6e-4 z"
       id="path106" />
    <text
       xml:space="preserve"
       id="text108"
       style="font-style:normal;font-weight:normal;font-size:10.5833px;line-height:1.25;font-family:sans-serif;text-align:center;white-space:pre;shape-inside:url(#rect110);fill:#000000;fill-opacity:1;stroke:none;"
       x="31.587118"
       y="0"
       transform="translate(30.90003,54.547541)"><tspan
         x="66.467701"
         y="28.899606"><tspan
           style="text-align:center;text-anchor:middle">PC Outstanding</tspan></tspan></text>
    <path
       style="fill:none;stroke:#000000;stroke-width:0.264583px;stroke-linecap:butt;stroke-linejoin:miter;stroke-opacity:1"
       d="M 156.35267,122.94398 68.955538,123.74579 58.799295,108.51143 H 143.52374 Z"
       id="path131" />
    <path
       style="fill:none;stroke:#000000;stroke-width:0.264583px;stroke-linecap:butt;stroke-linejoin:miter;stroke-opacity:1"
       d="m 48.046346,104.50939 0.334605,4.15876 17.634622,20.42303"
       id="path133" />
    <path
       style="fill:#000000;stroke-width:0.714286"
       d="m 204.95002,434.82771 -21.11035,-24.43832 -0.47894,-4.47225 c -0.26341,-2.45974 -0.36372,-4.79358 -0.22291,-5.18632 0.14081,-0.39275 10.00077,12.47223 21.91102,28.58884 11.91024,16.1166 21.51021,29.44769 21.33326,29.62464 -0.17695,0.17695 -9.82138,-10.67552 -21.43208,-24.11659 z"
       id="path135"
       transform="scale(0.26458333)" />
    <path
       style="fill:#000000;stroke-width:0.126269"
       d="m 211.414,442.89858 c -15.06467,-17.4466 -27.53049,-31.8876 -27.70181,-32.09113 -0.30357,-0.36062 -0.32366,-0.51856 -0.78762,-6.19078 -0.26186,-3.20139 -0.46261,-5.9498 -0.44611,-6.10756 0.0219,-0.20962 7.6215,9.98474 28.22614,37.86363 15.50787,20.98276 28.17444,38.17218 28.14792,38.1987 -0.0265,0.0265 -12.37386,-14.22627 -27.43852,-31.67286 z m 14.97297,15.92599 c 0,-0.54279 -15.86982,-22.38484 -28.79852,-39.63616 -8.26209,-11.02446 -13.03288,-17.1927 -14.05807,-18.17595 l -0.4537,-0.43514 0.006,1.69783 c 0.003,0.93381 0.16114,3.15876 0.35047,4.94434 0.32672,3.0813 0.36079,3.26443 0.66963,3.59867 0.17896,0.19369 5.03369,5.80699 10.78828,12.47399 11.61469,13.45624 15.64368,18.10311 20.30848,23.42292 6.02623,6.87242 10.89016,12.2481 11.0821,12.2481 0.0578,0 0.10511,-0.0624 0.10511,-0.1386 z"
       id="path137"
       transform="scale(0.26458333)" />
    <path
       style="fill:#000000;stroke-width:0.126269"
       d=""
       id="path139"
       transform="scale(0.26458333)" />
    <path
       style="fill:#000000;stroke-width:0.126269"
       d="m 248.54034,487.46158 c -0.7115,-0.84568 -62.53284,-72.47457 -64.98967,-75.29986 l -1.11433,-1.28144 -0.57558,-7.24172 -0.57559,-7.24172 -0.37952,-0.55818 -0.37951,-0.55818 0.29668,-0.22819 c 0.34238,-0.26334 0.441,-0.28265 0.54922,-0.10754 0.0429,0.0695 0.21674,0.12627 0.38626,0.12627 0.26607,0 0.30822,0.0584 0.30822,0.42733 0,0.33619 0.22381,0.7334 1.04941,1.86246 3.87443,5.29855 66.31858,89.73882 66.4854,89.90505 0.1918,0.19113 0.96895,0.19926 9.67873,0.10118 25.42202,-0.28626 115.18313,-1.25527 116.32538,-1.25578 0.52917,-2.6e-4 0.53664,0.006 0.53664,0.4417 v 0.44194 l -1.48366,7.6e-4 c -0.81601,3.8e-4 -6.05776,0.0559 -11.64832,0.12324 -5.59057,0.0674 -15.81836,0.181 -22.72843,0.25255 -6.91008,0.0715 -17.64926,0.18658 -23.86486,0.25563 -15.33744,0.1704 -32.4377,0.3515 -47.22463,0.50013 -6.77118,0.0681 -14.01587,0.15058 -16.09931,0.18336 l -3.78807,0.0596 -0.76446,-0.90862 z m -6.50805,-8.98084 c -0.0298,-0.0298 -13.49163,-18.23539 -29.91525,-40.45693 -16.42361,-22.22154 -29.86605,-40.39413 -29.87208,-40.38354 -0.006,0.0106 0.22472,2.92165 0.51279,6.469 l 0.52376,6.44974 18.41741,21.32946 c 10.12958,11.7312 23.33514,27.02577 29.3457,33.98793 6.01056,6.96216 10.95383,12.65847 10.98504,12.65847 0.0312,0 0.0324,-0.0244 0.003,-0.0541 z"
       id="path141"
       transform="scale(0.26458333)" />
    <path
       style="fill:#000000;stroke-width:0.126269"
       d=""
       id="path143"
       transform="scale(0.26458333)" />
    <path
       style="fill:#000000;stroke-width:0.126269"
       d="m 241.34985,479.1316 c -7.21417,-8.37938 -56.61941,-65.62322 -58.23639,-67.47613 l -0.67854,-0.77755 -0.57517,-7.24054 -0.57516,-7.24054 -0.37922,-0.55818 -0.37923,-0.55818 0.29668,-0.22819 c 0.34238,-0.26334 0.441,-0.28265 0.54922,-0.10754 0.0429,0.0695 0.21674,0.12627 0.38626,0.12627 0.26687,0 0.30822,0.0581 0.30822,0.43308 0,0.35953 0.31384,0.85809 1.84802,2.93575 37.62374,50.95197 65.76073,88.91869 65.92998,88.96282 0.21078,0.055 4.91942,0.013 31.34322,-0.27937 18.47467,-0.2044 93.79673,-1.01177 94.4177,-1.01204 0.52917,-2.6e-4 0.53664,0.006 0.53664,0.4417 v 0.44194 l -1.48366,7.6e-4 c -0.81601,3.8e-4 -6.05776,0.0559 -11.64832,0.12324 -5.59057,0.0674 -15.81836,0.181 -22.72843,0.25255 -6.91008,0.0715 -17.64926,0.18658 -23.86486,0.25563 -15.33744,0.1704 -32.4377,0.3515 -47.22463,0.50013 -6.77118,0.0681 -14.01587,0.15085 -16.09931,0.18397 l -3.78807,0.0602 -7.95495,-9.23981 z m 0.165,-1.33318 c -0.0907,-0.12725 -13.43272,-18.17875 -29.64883,-40.11444 -27.18323,-36.77102 -29.48638,-39.84917 -29.51656,-39.44868 -0.018,0.23891 0.18455,3.11056 0.45011,6.38144 l 0.48285,5.94705 2.77499,3.20745 c 1.52624,1.7641 14.63528,16.94396 29.13119,33.73301 14.49592,16.78905 26.38659,30.52555 26.42373,30.52555 0.0371,0 -0.007,-0.10412 -0.0975,-0.23138 z"
       id="path145"
       transform="scale(0.26458333)" />
    <path
       style="fill:none;stroke:#000000;stroke-width:0.264583px;stroke-linecap:butt;stroke-linejoin:miter;stroke-opacity:1"
       d="m 159.05526,114.91819 7.74851,-3.0238 7.37053,6.80357 -2.45684,6.2366 z"
       id="path147" />
    <path
       style="fill:none;stroke:#000000;stroke-width:0.264583px;stroke-linecap:butt;stroke-linejoin:miter;stroke-opacity:1"
       d="m 166.80377,111.89439 6.61458,-1.51191 7.55952,6.99256 v 7.9375 l -9.26041,-0.37798 2.45684,-6.2366 6.61459,-1.13393"
       id="path149" />
    <path
       style="fill:#000000;stroke-width:0.188988"
       d="m 165.61984,119.79057 c -3.29455,-2.60892 -5.9618,-4.7718 -5.92722,-4.80638 0.0346,-0.0346 1.63264,-0.68147 3.55123,-1.43754 l 3.48835,-1.37467 3.4783,3.20631 c 1.91307,1.76347 3.50083,3.30088 3.52835,3.41645 0.0275,0.11557 -0.44021,1.4542 -1.03943,2.97473 l -1.08948,2.7646 z"
       id="path151" />
    <path
       style="fill:#000000;stroke-width:0.188988"
       d="m 176.14565,124.91216 c -2.18281,-0.0966 -3.98676,-0.19346 -4.00878,-0.2152 -0.0562,-0.0555 2.11563,-5.56282 2.24461,-5.69181 0.0581,-0.0581 1.28671,-0.31299 2.73027,-0.56647 1.44357,-0.25348 2.85855,-0.50405 3.14439,-0.55683 l 0.51972,-0.096 v 3.68054 c 0,3.39056 -0.0261,3.67822 -0.33073,3.65097 -0.1819,-0.0163 -2.11666,-0.10863 -4.29948,-0.20525 z"
       id="path153" />
    <path
       style="fill:#000000;stroke-width:0.188988"
       d="m 170.69107,115.16779 -3.37572,-3.15257 1.48584,-0.34049 c 0.81721,-0.18726 2.17233,-0.49423 3.01138,-0.68214 l 1.52554,-0.34167 3.60506,3.32653 c 1.98278,1.82959 3.59249,3.34031 3.57713,3.35715 -0.08,0.0878 -5.60855,1.00711 -5.99724,0.99729 -0.321,-0.008 -1.45714,-0.94624 -3.83199,-3.1641 z"
       id="path155" />
    <text
       xml:space="preserve"
       id="text39"
       style="fill:black;fill-opacity:1;line-height:1.25;stroke:none;font-family:sans-serif;font-style:normal;font-weight:normal;font-size:10.58333333px;white-space:pre;shape-inside:url(#rect41);" />
  </g>
</svg>
