<?xml version="1.0" encoding="UTF-8" standalone="no"?>
<svg
   xmlns:dc="http://purl.org/dc/elements/1.1/"
   xmlns:cc="http://creativecommons.org/ns#"
   xmlns:rdf="http://www.w3.org/1999/02/22-rdf-syntax-ns#"
   xmlns:svg="http://www.w3.org/2000/svg"
   xmlns="http://www.w3.org/2000/svg"
   xmlns:sodipodi="http://sodipodi.sourceforge.net/DTD/sodipodi-0.dtd"
   xmlns:inkscape="http://www.inkscape.org/namespaces/inkscape"
   viewBox="0 0 256 199"
   version="1.1"
   preserveAspectRatio="xMidYMid"
   id="svg12"
   sodipodi:docname="mastercard.svg"
   inkscape:version="1.0.1 (3bc2e813f5, 2020-09-07)">
  <metadata
     id="metadata18">
    <rdf:RDF>
      <cc:Work
         rdf:about="">
        <dc:format>image/svg+xml</dc:format>
        <dc:type
           rdf:resource="http://purl.org/dc/dcmitype/StillImage" />
      </cc:Work>
    </rdf:RDF>
  </metadata>
  <defs
     id="defs16" />
  <sodipodi:namedview
     pagecolor="#ffffff"
     bordercolor="#666666"
     borderopacity="1"
     objecttolerance="10"
     gridtolerance="10"
     guidetolerance="10"
     inkscape:pageopacity="0"
     inkscape:pageshadow="2"
     inkscape:window-width="1920"
     inkscape:window-height="1001"
     id="namedview14"
     showgrid="false"
     inkscape:zoom="2.9492393"
     inkscape:cx="160.91772"
     inkscape:cy="85.868116"
     inkscape:window-x="-9"
     inkscape:window-y="-9"
     inkscape:window-maximized="1"
     inkscape:current-layer="svg12"
     inkscape:document-rotation="0" />
  <g
     id="g10">
    <path
       d="M46.5392504,198.011312 L46.5392504,184.839826 C46.5392504,179.790757 43.4659038,176.497885 38.1973096,176.497885 C35.5630125,176.497885 32.7091906,177.375984 30.7334678,180.229806 C29.1967945,177.815034 27.0015469,176.497885 23.7086756,176.497885 C21.513428,176.497885 19.3181804,177.15646 17.5619824,179.571233 L17.5619824,176.936935 L12.9519625,176.936935 L12.9519625,198.011312 L17.5619824,198.011312 L17.5619824,186.3765 C17.5619824,182.644579 19.5377052,180.888381 22.6110518,180.888381 C25.6843984,180.888381 27.2210717,182.864103 27.2210717,186.3765 L27.2210717,198.011312 L31.8310916,198.011312 L31.8310916,186.3765 C31.8310916,182.644579 34.0263392,180.888381 36.880161,180.888381 C39.9535076,180.888381 41.490181,182.864103 41.490181,186.3765 L41.490181,198.011312 L46.5392504,198.011312 L46.5392504,198.011312 Z M114.81145,176.936935 L107.347608,176.936935 L107.347608,170.570717 L102.737589,170.570717 L102.737589,176.936935 L98.566618,176.936935 L98.566618,181.107905 L102.737589,181.107905 L102.737589,190.766995 C102.737589,195.59654 104.713311,198.450362 109.981906,198.450362 C111.957628,198.450362 114.152876,197.791787 115.689549,196.913688 L114.372401,192.962243 C113.055252,193.840341 111.518579,194.059866 110.420955,194.059866 C108.225708,194.059866 107.347608,192.742718 107.347608,190.54747 L107.347608,181.107905 L114.81145,181.107905 L114.81145,176.936935 L114.81145,176.936935 Z M153.886857,176.497885 C151.25256,176.497885 149.496362,177.815034 148.398738,179.571233 L148.398738,176.936935 L143.788718,176.936935 L143.788718,198.011312 L148.398738,198.011312 L148.398738,186.156975 C148.398738,182.644579 149.935411,180.668856 152.789233,180.668856 C153.667332,180.668856 154.764956,180.888381 155.643055,181.107905 L156.960204,176.71741 C156.082105,176.497885 154.764956,176.497885 153.886857,176.497885 L153.886857,176.497885 L153.886857,176.497885 Z M94.834697,178.693133 C92.6394495,177.15646 89.566103,176.497885 86.2732315,176.497885 C81.0046375,176.497885 77.492241,179.132183 77.492241,183.303153 C77.492241,186.81555 80.1265385,188.791272 84.736558,189.449847 L86.931806,189.669371 C89.346578,190.10842 90.6637265,190.766995 90.6637265,191.864619 C90.6637265,193.401292 88.9075285,194.498916 85.834182,194.498916 C82.7608355,194.498916 80.346063,193.401292 78.8093895,192.303668 L76.614142,195.816065 C79.0289145,197.572262 82.321786,198.450362 85.614657,198.450362 C91.7613505,198.450362 95.2737465,195.59654 95.2737465,191.645094 C95.2737465,187.913173 92.4199245,185.937451 88.0294295,185.278876 L85.834182,185.059351 C83.858459,184.839826 82.321786,184.400777 82.321786,183.083629 C82.321786,181.546955 83.858459,180.668856 86.2732315,180.668856 C88.9075285,180.668856 91.5418255,181.76648 92.858974,182.425054 L94.834697,178.693133 L94.834697,178.693133 Z M217.329512,176.497885 C214.695215,176.497885 212.939017,177.815034 211.841393,179.571233 L211.841393,176.936935 L207.231373,176.936935 L207.231373,198.011312 L211.841393,198.011312 L211.841393,186.156975 C211.841393,182.644579 213.378066,180.668856 216.231888,180.668856 C217.109987,180.668856 218.207611,180.888381 219.08571,181.107905 L220.402859,176.71741 C219.52476,176.497885 218.207611,176.497885 217.329512,176.497885 L217.329512,176.497885 L217.329512,176.497885 Z M158.496877,187.474123 C158.496877,193.840341 162.887372,198.450362 169.69264,198.450362 C172.765986,198.450362 174.961234,197.791787 177.156481,196.035589 L174.961234,192.303668 C173.205036,193.620817 171.448838,194.279391 169.473115,194.279391 C165.741194,194.279391 163.106897,191.645094 163.106897,187.474123 C163.106897,183.522678 165.741194,180.888381 169.473115,180.668856 C171.448838,180.668856 173.205036,181.32743 174.961234,182.644579 L177.156481,178.912658 C174.961234,177.15646 172.765986,176.497885 169.69264,176.497885 C162.887372,176.497885 158.496877,181.107905 158.496877,187.474123 L158.496877,187.474123 L158.496877,187.474123 Z M201.08468,187.474123 L201.08468,176.936935 L196.47466,176.936935 L196.47466,179.571233 C194.937987,177.595509 192.742739,176.497885 189.888917,176.497885 C183.961749,176.497885 179.351729,181.107905 179.351729,187.474123 C179.351729,193.840341 183.961749,198.450362 189.888917,198.450362 C192.962264,198.450362 195.157512,197.352737 196.47466,195.377015 L196.47466,198.011312 L201.08468,198.011312 L201.08468,187.474123 Z M184.181274,187.474123 C184.181274,183.742202 186.596046,180.668856 190.547492,180.668856 C194.279413,180.668856 196.91371,183.522678 196.91371,187.474123 C196.91371,191.206044 194.279413,194.279391 190.547492,194.279391 C186.596046,194.059866 184.181274,191.206044 184.181274,187.474123 L184.181274,187.474123 Z M129.080559,176.497885 C122.933866,176.497885 118.543371,180.888381 118.543371,187.474123 C118.543371,194.059866 122.933866,198.450362 129.300084,198.450362 C132.373431,198.450362 135.446777,197.572262 137.861549,195.59654 L135.666302,192.303668 C133.910104,193.620817 131.714856,194.498916 129.519609,194.498916 C126.665787,194.498916 123.811965,193.181768 123.153391,189.449847 L138.739648,189.449847 L138.739648,187.693648 C138.959173,180.888381 135.007727,176.497885 129.080559,176.497885 L129.080559,176.497885 L129.080559,176.497885 Z M129.080559,180.449331 C131.934381,180.449331 133.910104,182.20553 134.349153,185.498401 L123.372916,185.498401 C123.811965,182.644579 125.787688,180.449331 129.080559,180.449331 L129.080559,180.449331 Z M243.452958,187.474123 L243.452958,168.594995 L238.842938,168.594995 L238.842938,179.571233 C237.306265,177.595509 235.111017,176.497885 232.257196,176.497885 C226.330027,176.497885 221.720007,181.107905 221.720007,187.474123 C221.720007,193.840341 226.330027,198.450362 232.257196,198.450362 C235.330542,198.450362 237.52579,197.352737 238.842938,195.377015 L238.842938,198.011312 L243.452958,198.011312 L243.452958,187.474123 Z M226.549552,187.474123 C226.549552,183.742202 228.964324,180.668856 232.91577,180.668856 C236.647691,180.668856 239.281988,183.522678 239.281988,187.474123 C239.281988,191.206044 236.647691,194.279391 232.91577,194.279391 C228.964324,194.059866 226.549552,191.206044 226.549552,187.474123 L226.549552,187.474123 Z M72.443172,187.474123 L72.443172,176.936935 L67.833152,176.936935 L67.833152,179.571233 C66.2964785,177.595509 64.101231,176.497885 61.247409,176.497885 C55.3202405,176.497885 50.7102205,181.107905 50.7102205,187.474123 C50.7102205,193.840341 55.3202405,198.450362 61.247409,198.450362 C64.3207555,198.450362 66.5160035,197.352737 67.833152,195.377015 L67.833152,198.011312 L72.443172,198.011312 L72.443172,187.474123 Z M55.3202405,187.474123 C55.3202405,183.742202 57.735013,180.668856 61.6864585,180.668856 C65.4183795,180.668856 68.0526765,183.522678 68.0526765,187.474123 C68.0526765,191.206044 65.4183795,194.279391 61.6864585,194.279391 C57.735013,194.059866 55.3202405,191.206044 55.3202405,187.474123 Z"
       fill="#000000"
       id="path2" />
    <rect
       fill="#FF5F00"
       x="93.2980455"
       y="16.9034088"
       width="69.1502985"
       height="124.251009"
       id="rect4" />
    <path
       d="M97.688519,79.0288935 C97.688519,53.783546 109.542856,31.3920209 127.763411,16.9033869 C114.3724,6.3661985 97.468994,-1.94737475e-05 79.0289145,-1.94737475e-05 C35.3434877,-1.94737475e-05 1.7258174e-06,35.3434665 1.7258174e-06,79.0288935 C1.7258174e-06,122.71432 35.3434877,158.057806 79.0289145,158.057806 C97.468994,158.057806 114.3724,151.691588 127.763411,141.1544 C109.542856,126.88529 97.688519,104.274241 97.688519,79.0288935 Z"
       fill="#EB001B"
       id="path6" />
    <path
       d="M255.746345,79.0288935 C255.746345,122.71432 220.402859,158.057806 176.717432,158.057806 C158.277352,158.057806 141.373945,151.691588 127.982936,141.1544 C146.423015,126.665766 158.057827,104.274241 158.057827,79.0288935 C158.057827,53.783546 146.20349,31.3920209 127.982936,16.9033869 C141.373945,6.3661985 158.277352,-1.94737475e-05 176.717432,-1.94737475e-05 C220.402859,-1.94737475e-05 255.746345,35.5629913 255.746345,79.0288935 Z"
       fill="#F79E1B"
       id="path8" />
  </g>
  <path
     style="fill:#b3b3b3;stroke-width:0.239759"
     d="M 73.454819,157.75394 C 50.325896,155.95402 29.619183,144.61533 15.819651,126.19378 7.3521532,114.89018 2.2854715,102.02633 0.53686408,87.392169 0.08125799,83.579185 0.14438069,73.821431 0.65086231,69.76988 2.8991823,51.784662 10.640972,35.901859 23.327318,23.247603 36.225909,10.381638 52.181878,2.7149095 70.457831,0.6017275 74.38841,0.14724909 82.604921,0.08026157 86.521687,0.47076219 100.4748,1.8618836 114.03756,7.0440653 125.4535,15.346173 l 2.14513,1.560029 -2.034,1.670944 c -2.72592,2.239343 -7.87511,7.547051 -10.47101,10.793336 -9.16561,11.462033 -14.62967,24.199503 -16.86752,39.320482 -0.663982,4.48646 -0.60305,16.738779 0.106383,21.391893 1.236615,8.110869 3.256107,14.978773 6.505617,22.124373 4.45064,9.78686 11.56514,19.35067 19.52549,26.24755 1.67035,1.4472 3.0328,2.68796 3.02766,2.75723 -0.0136,0.18304 -1.74572,1.43042 -4.96103,3.57266 -10.27736,6.84739 -21.77185,11.06747 -34.3501,12.61126 -3.764449,0.46203 -11.009703,0.63939 -14.625301,0.35801 z"
     id="path20" />
  <path
     style="fill:#666666;stroke-width:0.239759"
     d="m 171.03675,157.7537 c -14.51204,-1.1308 -28.34662,-6.17689 -40.20092,-14.66306 l -2.67863,-1.91755 2.18877,-1.83564 c 10.45882,-8.77144 18.90352,-21.10302 23.42237,-34.20311 3.20802,-9.29997 4.51596,-18.036241 4.24838,-28.376645 -0.37405,-14.455492 -4.3829,-27.73866 -12.06457,-39.975468 -4.15563,-6.619888 -10.7408,-14.149193 -16.3242,-18.664668 l -1.46284,-1.183043 1.53383,-1.161136 c 9.54773,-7.2278235 21.92588,-12.5218902 34.02516,-14.5523792 8.7382,-1.46643599 18.93813,-1.37405674 27.45241,0.2486321 21.79853,4.1544641 40.65158,17.0340801 52.42255,35.8128971 2.23772,3.569943 5.48561,10.094124 6.92275,13.906024 6.95539,18.448583 6.7678,38.721732 -0.52801,57.062646 -10.12285,25.44779 -33.06704,44.01934 -59.9615,48.53418 -5.97806,1.00355 -13.5741,1.39077 -18.99555,0.96832 z"
     id="path22" />
  <path
     style="fill:#666666;stroke-width:0.239759"
     d="M 70.937349,157.41675 C 55.444176,155.51604 42.327189,150.1651 30.298193,140.83842 26.864086,138.17578 20.50608,131.88474 17.718255,128.39096 8.5359426,116.88346 3.2921797,104.67502 0.88083129,89.190361 0.21038331,84.885028 0.28894937,72.849589 1.018562,68.091566 4.3356611,46.45977 15.270181,28.284134 32.720852,15.395218 43.365242,7.5333625 55.711536,2.6747247 69.738554,0.82764006 74.08329,0.25552307 84.424754,0.24456805 88.439759,0.8078293 102.38834,2.7646624 113.68302,7.2314099 125.19759,15.344578 l 2.2118,1.558434 -0.54385,0.434543 c -2.36094,1.88642 -5.26876,4.638381 -7.901,7.477505 -11.16965,12.047556 -17.62803,25.269286 -20.612123,42.197591 -0.502806,2.852343 -0.549972,3.839218 -0.555745,11.628313 -0.0068,9.113291 0.08195,10.206662 1.325234,16.333481 2.502684,12.333085 7.813194,23.704275 15.717984,33.656275 2.37391,2.98872 7.39675,8.20089 10.34294,10.73282 1.08791,0.93493 1.97788,1.76165 1.97772,1.83714 -1.6e-4,0.0755 -0.91869,0.78462 -2.04117,1.57583 -11.06788,7.80143 -22.424,12.35979 -35.600705,14.29015 -4.273969,0.62613 -14.726051,0.82306 -18.581326,0.35009 z"
     id="path24" />
  <path
     style="fill:#cccccc;stroke-width:0.239759"
     d="m 170.31747,157.61148 c -9.56999,-1.19236 -15.37045,-2.57499 -22.17771,-5.28641 -6.51104,-2.59343 -11.88696,-5.55934 -18.27043,-10.07986 l -1.48729,-1.05325 2.44633,-2.11433 c 11.48879,-9.92965 20.04207,-23.25332 24.25294,-37.77944 2.06072,-7.108809 2.74815,-11.750782 2.93611,-19.826667 0.19549,-8.399704 -0.37545,-14.295254 -2.07181,-21.393481 C 152.04852,43.771127 142.2169,28.235921 128.90041,17.34321 l -0.53815,-0.440198 2.15596,-1.558434 c 7.33778,-5.304092 16.22507,-9.6151812 24.94923,-12.1024911 15.6915,-4.4737377 32.87813,-3.82592641 48.21429,1.8173287 13.87775,5.1066034 26.29226,14.1902504 35.28924,25.8209944 3.99755,5.167795 8.77551,13.633555 11.26174,19.953975 1.30313,3.312781 2.78956,8.393577 3.61928,12.371113 1.85882,8.910898 2.07991,19.377066 0.6009,28.445242 -2.14337,13.14153 -7.87366,26.02489 -16.2881,36.62034 -2.4956,3.14247 -8.92756,9.58292 -12.09908,12.11508 -4.0568,3.23895 -9.41897,6.65267 -14.21085,9.04705 -8.3819,4.18824 -16.1825,6.5608 -25.47354,7.74782 -2.86455,0.36598 -14.15345,0.66847 -16.06386,0.43045 z"
     id="path26" />
  <path
     style="fill:#cccccc;stroke-width:0.239759"
     d="m 126.06864,139.6122 c -4.44029,-3.64314 -10.11022,-9.77927 -13.69184,-14.81762 -7.97041,-11.21214 -12.944149,-24.67361 -14.241752,-38.545386 -0.411064,-4.394407 -0.165465,-14.21357 0.460405,-18.407246 1.910747,-12.803067 6.513327,-24.200323 14.107107,-34.933092 3.31844,-4.69016 9.31876,-11.174661 13.4493,-14.534553 l 1.72826,-1.405817 1.7293,1.405817 c 2.45333,1.994405 7.6549,7.219664 9.96179,10.007158 4.04894,4.892461 7.38269,10.055855 10.23621,15.854081 3.82978,7.781955 5.99613,14.727096 7.32907,23.496386 0.65869,4.333421 0.90758,13.722364 0.48684,18.364859 -1.72117,18.991583 -9.74356,35.949983 -23.31129,49.277383 -2.60483,2.55868 -6.09485,5.60414 -6.42222,5.60414 -0.0859,0 -0.90542,-0.61475 -1.82118,-1.36611 z"
     id="path28" />
  <path
     style="fill:#999999;stroke-width:0.239759"
     d="m 168.3994,157.2596 c -10.36175,-1.61888 -15.3477,-2.95757 -22.65723,-6.08328 -4.58317,-1.95986 -10.12887,-5.09154 -14.87066,-8.39755 l -2.25896,-1.57497 1.97143,-1.71101 c 4.68861,-4.06925 9.54248,-9.41983 13.22501,-14.57833 6.90138,-9.66747 12.0683,-22.52496 13.68889,-34.063753 0.52606,-3.745638 0.74514,-15.400806 0.36937,-19.65078 -1.34427,-15.203557 -7.21739,-29.578303 -17.23352,-42.179831 -1.82838,-2.30033 -8.77113,-9.4264 -10.89971,-11.187522 l -1.14309,-0.945754 2.58164,-1.816243 c 17.55711,-12.3518131 38.69164,-17.1030025 59.52442,-13.3815014 20.52874,3.667188 39.72453,16.2143094 50.96963,33.3157434 7.75844,11.798952 11.99297,23.408668 13.27978,36.408836 0.31674,3.199908 0.31669,12.214424 -8e-5,15.413653 -1.46524,14.798192 -7.53099,29.586432 -16.99809,41.441212 -2.25287,2.82106 -9.03601,9.63635 -11.76764,11.82341 -5.52731,4.42541 -12.77383,8.71062 -19.65951,11.62559 -7.27054,3.0779 -15.71658,5.08939 -23.3765,5.56728 -4.3673,0.27247 -12.93365,0.25783 -14.74518,-0.0252 z"
     id="path30" />
  <path
     style="fill:#000000;stroke-width:0.239759"
     d="m 70.577711,157.26833 c -8.843949,-1.10285 -18.029379,-3.7903 -25.755508,-7.53547 -7.10599,-3.44457 -13.084176,-7.54825 -19.019224,-13.05559 C 13.117186,124.90565 5.3915285,111.06855 1.8738297,93.81878 0.82131202,88.657538 0.58622512,86.102251 0.57672833,79.71988 0.56194939,69.787588 1.4783372,63.592332 4.2118493,55.144578 8.2166167,42.768087 14.423274,32.621308 23.573273,23.492099 35.897727,11.195647 50.657099,3.8313456 68.3,1.1753555 72.364158,0.56353079 81.012995,0.32272733 85.62915,0.69287235 93.237783,1.3029688 101.95858,3.462793 109.17892,6.5252906 c 5.13182,2.1766584 9.61187,4.6487194 14.8211,8.1781864 l 3.1928,2.163247 -1.15484,0.951541 c -2.19422,1.807941 -9.08625,8.92376 -11.18891,11.552217 -8.48006,10.600612 -13.75097,22.386903 -16.512183,36.922891 -0.513002,2.700627 -0.546298,3.472733 -0.542807,12.58735 0.0035,9.079399 0.03963,9.910255 0.556435,12.788963 2.960545,16.490724 9.490265,29.807474 20.368975,41.540634 1.57711,1.70098 4.06765,4.16579 5.53453,5.47736 1.46689,1.31157 2.66613,2.44443 2.66499,2.51747 -0.004,0.24299 -4.89122,3.55532 -7.79945,5.28589 -9.09636,5.41288 -19.782923,9.14687 -30.200283,10.55228 -2.54585,0.34347 -16.06199,0.50928 -18.341566,0.22501 z"
     id="path32" />
  <path
     style="fill:#666666;stroke-width:0.239759"
     d="m 168.5789,157.28193 c -0.0328,-0.0659 -1.51616,-0.3668 -3.29637,-0.6686 -13.41366,-2.27398 -23.536,-6.40845 -34.57378,-14.12168 l -1.84668,-1.29046 2.08643,-1.87424 c 11.41185,-10.25124 19.08812,-21.90682 23.70325,-35.99081 1.1129,-3.396247 2.55054,-9.290783 2.40329,-9.853866 -0.0656,-0.250673 -0.009,-0.455768 0.12534,-0.455768 0.13487,0 0.19757,-0.319932 0.13982,-0.713425 -0.0576,-0.392384 -0.0221,-0.743032 0.0788,-0.779216 0.69178,-0.247986 0.94362,-17.871948 0.32367,-22.650801 -1.84026,-14.185552 -6.84265,-26.38963 -15.6555,-38.193907 -1.35987,-1.821455 -3.93737,-4.649885 -7.59452,-8.333874 l -5.53603,-5.576645 3.12806,-2.120008 c 9.52331,-6.4543189 18.97033,-10.4605761 29.74131,-12.6125883 9.31265,-1.86063956 20.09196,-1.89764992 29.61025,-0.1016656 14.43455,2.7236249 28.65624,10.1124849 39.62989,20.5896539 6.54411,6.248033 11.76521,13.533744 16.23906,22.660548 3.58376,7.311016 5.70957,13.995176 7.09144,22.297591 0.61233,3.678975 0.75402,17.03504 0.22433,21.14621 -1.75725,13.638821 -7.33514,27.189281 -15.73369,38.222071 -2.04997,2.69295 -6.86435,7.79689 -10.24261,10.85865 -7.86756,7.13047 -19.20832,13.45564 -29.65602,16.54028 -7.58184,2.23851 -11.84463,2.81622 -22.11808,2.99751 -4.51663,0.0797 -8.23889,0.091 -8.27169,0.025 z"
     id="path34" />
  <path
     style="fill:#999999;stroke-width:0.239759"
     d="m 125.55062,138.96995 c -1.15832,-0.97273 -3.34679,-3.04982 -4.86327,-4.61575 -6.49405,-6.70583 -10.64288,-12.5291 -14.49763,-20.34878 -4.07934,-8.27526 -6.590832,-16.680912 -7.700933,-25.774095 -0.515918,-4.226043 -0.362017,-16.709231 0.254208,-20.619277 1.934315,-12.273555 6.483905,-23.657491 13.498855,-33.776749 3.07088,-4.429818 8.49303,-10.520264 12.42264,-13.953752 3.32329,-2.903718 3.07381,-2.783748 4.12488,-1.983565 3.22197,2.452887 9.81598,9.316397 12.933,13.461577 4.43282,5.894988 8.73632,13.777235 11.32669,20.74586 2.11474,5.68907 3.79816,13.108744 4.30701,18.983135 0.37996,4.386322 0.31794,13.884767 -0.1134,17.368847 -1.85748,15.003659 -7.51279,28.387019 -16.97573,40.173319 -3.03278,3.7774 -11.55813,12.10783 -12.39112,12.10783 -0.12054,0 -1.16688,-0.79587 -2.3252,-1.7686 z"
     id="path36" />
  <path
     style="fill:#e6e6e6;stroke-width:0.239759"
     d="M 68.18012,156.81203 C 55.911428,154.78793 44.949784,150.53532 35.257258,144.03949 28.095241,139.23959 19.808885,131.0953 14.653701,123.78917 8.3450489,114.84831 3.9856774,104.17907 1.6080698,91.860941 1.0355477,88.894767 0.96663802,87.914244 0.86636353,81.307116 0.68916326,69.631318 1.4201331,64.225766 4.4253022,54.988615 9.6523125,38.922072 19.483394,25.471257 33.431189,15.302969 42.200524,8.9099061 52.511537,4.4198689 63.582671,2.1731935 69.657353,0.94045314 70.85183,0.8403371 79.448795,0.84336301 c 9.054774,0.003187 10.849782,0.20609639 18.283485,2.06677969 9.52957,2.3852866 16.79753,5.6686555 25.74521,11.6306393 l 3.38955,2.258506 -4.08148,4.007886 c -4.79678,4.710303 -7.41384,7.588419 -9.80237,10.780204 -6.20026,8.285362 -10.60193,17.672564 -13.350798,28.47251 -1.888381,7.419199 -1.842031,6.945606 -1.842031,18.820835 0,10.194722 0.02488,10.797246 0.55933,13.546385 2.760549,14.199832 7.932879,25.727382 16.244299,36.203612 1.1508,1.45055 4.35003,4.89127 7.10941,7.64606 2.75937,2.75478 4.9248,5.07445 4.81207,5.15481 -9.74972,6.95018 -18.79157,11.23185 -29.153258,13.80525 -6.75207,1.67693 -8.23965,1.83907 -17.793537,1.93942 -7.625934,0.0801 -8.952492,0.0377 -11.388555,-0.36423 z"
     id="path38" />
  <path
     style="fill:#e6e6e6;stroke-width:0.239759"
     d="m 167.91988,157.04398 c -0.46154,-0.11876 -2.78121,-0.59565 -5.15482,-1.05975 -11.98278,-2.34292 -21.58704,-6.38826 -31.44975,-13.24669 l -2.19915,-1.52926 2.91843,-2.71089 c 11.89879,-11.05261 19.90799,-24.15941 23.82093,-38.982189 1.96945,-7.460573 2.29424,-10.762522 2.17119,-22.073032 -0.0841,-7.726573 -0.15704,-9.088069 -0.62332,-11.628314 -2.27609,-12.399865 -6.01802,-21.667052 -12.82742,-31.768072 -2.66591,-3.954593 -3.89772,-5.395065 -10.31684,-12.064461 -2.76926,-2.87723 -4.93075,-5.30479 -4.80332,-5.394578 12.77844,-9.0035973 24.6201,-13.696679 38.94359,-15.4340971 3.26793,-0.39639523 13.49602,-0.39103899 16.90301,0.00885 15.12809,1.7756408 28.42414,7.3954239 40.87892,17.2781101 2.83238,2.247459 8.96026,8.333657 11.12644,11.050752 6.2941,7.894894 12.11864,19.151307 14.88735,28.771085 2.14179,7.441598 2.60342,11.711121 2.45907,22.743954 -0.0977,7.468967 -0.15193,8.304321 -0.73356,11.301829 -1.54875,7.981723 -3.79407,14.688993 -7.21107,21.541073 -3.62614,7.27147 -6.85884,12.0026 -12.08508,17.68678 -5.14302,5.59367 -10.37054,9.98945 -16.3552,13.75295 -3.26684,2.05438 -11.36284,6.07659 -14.74268,7.32439 -6.00648,2.21751 -12.61503,3.71221 -18.46395,4.1761 -4.16356,0.33022 -16.15761,0.50896 -17.14277,0.25546 z"
     id="path40" />
  <path
     style="fill:#999999;stroke-width:0.239759"
     d="M 69.259036,156.88733 C 55.800414,154.79287 42.796642,149.4966 32.801606,142.0387 27.842593,138.33848 21.189614,131.89392 17.351168,127.07229 11.596174,119.8432 6.9930153,110.95706 4.1712986,101.62929 2.9388077,97.555039 1.6200486,91.663536 1.2694425,88.665368 0.86370746,85.19577 1.1120987,69.895657 1.6248581,66.772892 4.3564947,50.136897 13.359136,33.229696 25.328695,22.256449 37.818487,10.806273 50.12328,4.7121565 66.981325,1.6274161 69.774027,1.1163984 70.607513,1.0795026 79.209036,1.086134 89.529529,1.094094 90.083312,1.150423 97.04345,2.9003 c 10.28491,2.5857713 17.29404,5.738646 26.76077,12.037632 1.38461,0.921293 2.56,1.710933 2.61198,1.754756 0.052,0.04382 -2.15979,2.379843 -4.91506,5.191157 -7.98465,8.147072 -11.74464,13.186469 -15.64506,20.968573 -3.61804,7.218715 -7.223052,18.503068 -7.92608,24.810121 -0.332194,2.980186 -0.338682,20.069905 -0.0086,22.702198 0.586328,4.676069 2.77007,12.736913 4.943,18.246103 2.46991,6.26217 6.19036,12.91757 10.21402,18.27158 1.11905,1.48903 4.53537,5.32469 7.59183,8.52367 3.05646,3.19897 5.48999,5.92506 5.40785,6.05797 -0.20591,0.33317 -5.80702,3.98895 -8.14796,5.31809 -6.98212,3.96428 -13.4871,6.55129 -21.335437,8.48504 -6.149503,1.51517 -6.799933,1.57809 -17.145888,1.65848 -5.208765,0.0405 -9.794156,0.0232 -10.189759,-0.0383 z"
     id="path42" />
  <path
     style="fill:#808080;stroke-width:0.239759"
     d="m 126.40316,139.50542 c -0.70415,-0.54636 -2.85124,-2.56932 -4.77131,-4.49548 -7.28088,-7.30396 -11.4581,-13.13608 -15.67711,-21.88796 -3.80614,-7.89544 -6.09659,-15.562232 -7.221175,-24.171378 -0.587417,-4.496906 -0.360937,-18.835177 0.359774,-22.777108 1.875411,-10.257573 5.428901,-19.637605 10.769471,-28.427855 3.96567,-6.527245 10.60607,-14.25434 16.3766,-19.056625 0.78421,-0.652633 1.52254,-1.186604 1.64071,-1.186604 0.80553,0 8.18171,7.214872 11.70386,11.447912 3.97941,4.782582 7.22369,9.947944 10.4644,16.660799 2.33321,4.833056 3.64204,8.298785 4.79965,12.709222 2.23437,8.512901 2.60122,11.847647 2.45343,22.302251 -0.10628,7.518122 -0.16889,8.500033 -0.74481,11.680542 -2.76413,15.264774 -9.25025,28.563744 -19.24027,39.449714 -2.97461,3.24138 -8.83903,8.74595 -9.31771,8.74595 -0.17339,0 -0.89137,-0.44702 -1.59551,-0.99338 z"
     id="path44" />
  <path
     style="fill:#808080;stroke-width:0.0211919"
     d="m 29.514356,140.63273 c -1.40351,-1.12801 -2.759241,-2.29656 -4.088813,-3.52429 -1.494395,-1.37992 -3.326419,-3.21974 -4.71709,-4.73717 -4.500946,-4.9112 -8.41128,-10.45735 -11.5571041,-16.39181 -0.3252834,-0.61363 -1.2049024,-2.3497 -1.2696917,-2.50594 l -0.032955,-0.0795 h 0.069661 0.069661 l 0.405033,0.81059 c 5.0687688,10.1441 12.4966718,19.33509 21.3341248,26.398 0.326355,0.26082 0.597347,0.4776 0.602204,0.48173 0.0049,0.004 -0.048,0.007 -0.117465,0.007 H 30.08563 Z"
     id="path46" />
  <path
     style="fill:#808080;stroke-width:0.0211919"
     d="M 29.839618,140.66239 C 24.772931,136.6047 20.247639,131.97476 16.31414,126.82415 13.258797,122.82342 10.723007,118.78011 8.5126914,114.38477 L 8.01448,113.39405 H 8.08939 8.1643 l 0.373568,0.74702 c 2.090105,4.17953 4.475854,8.03641 7.38993,11.94682 0.807074,1.08301 1.656448,2.16988 2.268973,2.9034 2.985367,3.57509 8.851375,9.33165 12.025061,11.80069 0.199992,0.15559 0.363621,0.28672 0.363621,0.29139 0,0.005 -0.04715,0.008 -0.104781,0.008 -0.104491,0 -0.106258,-0.001 -0.641055,-0.42948 z"
     id="path48" />
  <path
     style="fill:#808080;stroke-width:0.0211919"
     d="m 30.476625,140.69585 c -3.455179,-2.76353 -6.991902,-6.09741 -10.011192,-9.43702 -4.37178,-4.83559 -8.014199,-10.03215 -10.9561266,-15.63089 -0.3714715,-0.70694 -1.1117769,-2.18025 -1.1117769,-2.21258 0,-0.0117 0.035761,-0.0206 0.07947,-0.0197 l 0.07947,0.002 0.4238381,0.85929 c 2.1027634,4.26314 4.5885474,8.25491 7.3941824,11.87389 0.285187,0.36786 1.021858,1.29244 1.249484,1.5682 1.917681,2.32319 3.54993,4.1225 5.745057,6.33307 2.474763,2.49218 4.99135,4.77289 7.343745,6.65543 0.562001,0.44975 0.520049,0.40478 0.377659,0.40478 h -0.11867 z"
     id="path50" />
  <path
     style="fill:#808080;stroke-width:0.0211919"
     d="m 30.433449,140.64339 c -4.009332,-3.22285 -7.95555,-7.03145 -11.241771,-10.84972 -3.796473,-4.41113 -7.013737,-9.12205 -9.6440976,-14.12149 -0.312136,-0.59326 -1.128859,-2.21166 -1.128859,-2.23691 0,-0.011 0.030993,-0.0192 0.068874,-0.0181 l 0.068874,0.002 0.5238428,1.05242 c 2.8904128,5.8069 6.1874758,10.674 10.6323558,15.6954 2.051493,2.31758 4.691282,4.98896 7.143061,7.22853 1.203267,1.09913 2.541146,2.24802 3.812152,3.27366 0.23765,0.19178 0.445066,0.35927 0.460924,0.37221 0.04695,0.0383 0.03373,0.0506 -0.0543,0.0506 -0.07652,0 -0.127505,-0.0357 -0.641055,-0.44848 z"
     id="path52" />
  <path
     style="fill:#808080;stroke-width:0.010596"
     d="m 24.52404,135.15908 c -3.954783,-3.85206 -7.48743,-7.95122 -10.134468,-11.7597 -0.356172,-0.51245 -1.156283,-1.70164 -1.231557,-1.83045 -0.006,-0.0103 0.01825,-0.0132 0.107544,-0.0132 h 0.115284 l 0.125976,0.19337 c 1.205528,1.85052 2.585163,3.75984 3.929658,5.43838 1.11065,1.38659 2.466084,2.92602 4.016349,4.56155 0.98759,1.04191 2.2003,2.2642 3.351011,3.37746 l 0.287497,0.27815 h -0.157615 -0.157616 z"
     id="path54" />
  <path
     style="fill:#808080;stroke-width:0.0299699"
     d="m 100.44349,58.901801 c 0,-0.0061 0.10808,-0.399642 0.24018,-0.874446 1.85882,-6.681236 4.42844,-12.747114 7.96599,-18.804598 1.47525,-2.52614 3.33644,-5.351345 4.90628,-7.447515 2.74974,-3.671679 7.08806,-8.439926 10.57647,-11.624581 0.40156,-0.366597 0.45822,-0.408242 0.55444,-0.407502 l 0.10717,8.24e-4 -0.19438,0.171503 c -3.80191,3.354394 -8.87615,9.013004 -11.97873,13.35825 -3.23011,4.523846 -6.26906,9.993555 -8.48817,15.277597 -1.30518,3.107836 -2.47345,6.459215 -3.33239,9.559509 -0.20626,0.744485 -0.22677,0.801296 -0.28943,0.801694 -0.0371,3e-4 -0.0674,-0.0046 -0.0674,-0.01074 z"
     id="path56" />
  <path
     style="fill:#808080;stroke-width:0.0299699"
     d=""
     id="path58" />
  <path
     style="fill:#808080;stroke-width:0.0299699"
     d=""
     id="path60" />
  <path
     style="fill:#808080;stroke-width:0.0299699"
     d="m 100.98582,56.247806 c -0.003,-0.049 0.0944,-0.370231 0.49743,-1.635516 1.6189,-5.08253 3.82578,-10.097493 6.52174,-14.820105 2.45995,-4.309205 5.68019,-8.862839 8.7065,-12.311582 0.22129,-0.252172 0.4088,-0.452028 0.41671,-0.444125 0.008,0.0079 -0.14628,0.200739 -0.34263,0.428524 -5.61331,6.512013 -10.24993,14.15442 -13.47001,22.202258 -0.79832,1.995205 -1.42522,3.76893 -2.20853,6.24872 -0.0651,0.206043 -0.11963,0.355364 -0.12121,0.331826 z"
     id="path62" />
  <path
     style="fill:#808080;stroke-width:0.0299699"
     d=""
     id="path64" />
  <path
     style="fill:#808080;stroke-width:0.0299699"
     d=""
     id="path66" />
  <path
     style="fill:#808080;stroke-width:0.0299699"
     d="m 100.29364,58.901486 c 0,-0.0063 0.0882,-0.333361 0.196,-0.726769 3.2059,-11.699823 9.02923,-22.454118 17.10967,-31.597485 1.19606,-1.353394 2.32801,-2.548291 3.70717,-3.913303 1.50064,-1.485251 3.07102,-2.934385 3.16045,-2.916438 0.0332,0.0067 -0.0459,0.09549 -0.24653,0.27656 -1.48982,1.344747 -3.89348,3.769631 -5.66226,5.71226 -2.53015,2.778829 -4.44799,5.139355 -6.16835,7.592176 -4.0629,5.79269 -7.38221,12.082308 -9.71403,18.406695 -0.81921,2.221883 -1.71335,5.04678 -2.2316,7.050414 -0.0247,0.09536 -0.0477,0.127372 -0.0917,0.127372 -0.0323,0 -0.0588,-0.0052 -0.0588,-0.01148 z"
     id="path68" />
  <path
     style="fill:#808080;stroke-width:0.0299699"
     d="m 100.77316,58.873363 c 0,-0.147983 0.84457,-2.944712 1.31846,-4.365968 2.21945,-6.656478 5.48831,-13.400327 9.18102,-18.940963 3.52702,-5.292034 8.69217,-11.268935 13.38502,-15.488594 l 0.37312,-0.335503 h 2.83595 2.83594 l 0.83687,0.788657 c 0.97499,0.918834 3.02034,2.954386 4.02116,4.001904 l 0.6968,0.729313 v 16.82538 16.825379 h -17.74217 c -14.68573,0 -17.74217,-0.0068 -17.74217,-0.03961 z"
     id="path70" />
  <path
     style="fill:#808080;stroke-width:0.0299699"
     d=""
     id="path72" />
  <path
     style="fill:#808080;stroke-width:0.0299699"
     d=""
     id="path74" />
  <path
     style="fill:#808080;stroke-width:0.239759"
     d="m 126.8675,139.70444 c -1.51378,-1.12761 -8.24523,-7.90895 -10.52898,-10.60702 -3.94485,-4.66053 -6.67432,-8.86688 -9.71563,-14.97266 -4.81889,-9.6745 -7.332236,-18.666998 -7.9769,-28.540599 -0.368224,-5.639694 0.04713,-16.907335 0.75481,-20.476175 2.7977,-14.108886 8.64369,-26.392998 17.60965,-37.002932 3.33119,-3.941991 10.11819,-10.429519 10.91096,-10.429519 0.64524,0 6.14288,5.223328 9.7155,9.230723 8.1366,9.126821 14.57958,21.272117 17.48864,32.966868 1.65987,6.672863 1.87753,8.467102 2.00687,16.543373 0.1397,8.72295 -0.14052,13.227149 -1.11872,17.981928 -3.1023,15.079403 -9.9358,28.137593 -20.36143,38.908783 -2.65246,2.74037 -7.39685,7.13255 -7.68911,7.11828 -0.0751,-0.004 -0.56819,-0.32814 -1.09566,-0.72105 z"
     id="path76" />
  <path
     style="fill:#808080;stroke-width:0.239759"
     d=""
     id="path78" />
  <path
     style="fill:#808080;stroke-width:0.239759"
     d=""
     id="path80" />
  <path
     style="fill:#808080;stroke-width:0.239759"
     d=""
     id="path82" />
  <path
     style="fill:#808080;stroke-width:0.239759"
     d="m 97.774634,81.691198 c 0,-0.329669 0.05442,-0.464533 0.120931,-0.299699 0.06651,0.164835 0.06651,0.434564 0,0.599398 -0.06651,0.164834 -0.120931,0.02997 -0.120931,-0.299699 z"
     id="path84" />
  <path
     style="fill:#808080;stroke-width:0.239759"
     d="m 126.91076,139.72563 c -2.85044,-2.15765 -9.91806,-9.57997 -12.94863,-13.59848 -7.55018,-10.01149 -12.86416,-22.57752 -14.786354,-34.96547 -1.08175,-6.971541 -0.843795,-20.782848 0.467913,-27.158407 2.570671,-12.494729 7.746081,-23.773169 15.317641,-33.38075 2.36249,-2.997761 3.14938,-3.878354 6.60303,-7.38925 2.95841,-3.007442 5.86599,-5.557738 6.33636,-5.557738 0.83644,0 7.40426,6.396341 11.09291,10.803276 4.51156,5.390095 7.21086,9.607276 10.65665,16.649134 2.59782,5.308953 4.10855,9.343908 5.41645,14.46666 1.69139,6.624746 1.92986,8.597879 2.06205,17.061653 0.13895,8.896648 -0.11633,12.960156 -1.1146,17.742169 -2.8687,13.741973 -8.68445,25.665323 -17.42483,35.724093 -2.80098,3.22349 -10.10733,10.32354 -10.60232,10.30297 -0.0883,-0.004 -0.57259,-0.31861 -1.07627,-0.69986 z"
     id="path86" />
  <path
     style="fill:#808080;stroke-width:0.239759"
     d="m 126.50786,139.3831 c -2.45426,-1.9519 -8.72063,-8.40643 -11.66748,-12.01781 -1.53941,-1.88656 -4.9126,-6.96004 -6.38377,-9.60159 -4.74207,-8.51461 -7.97311,-17.870998 -9.393448,-27.201418 -0.814994,-5.353814 -0.688655,-19.698233 0.21896,-24.860494 2.461088,-13.997974 9.089648,-27.823885 18.427338,-38.435891 3.25453,-3.698681 9.51536,-9.590362 10.19126,-9.590362 0.86987,0 7.49713,6.483124 11.37418,11.126811 4.34195,5.200504 7.33394,9.944957 10.74902,17.044876 2.3471,4.879602 3.83641,8.98795 5.15238,14.213141 1.63426,6.489026 1.81577,8.042919 1.95265,16.715775 0.16773,10.628348 -0.17954,14.390256 -1.98755,21.530901 -1.50636,5.949291 -3.39886,10.920931 -6.38918,16.784561 -3.43398,6.73357 -7.63796,12.57302 -13.13352,18.24281 -2.90631,2.99846 -7.31625,7.09791 -7.63517,7.0976 -0.0863,-8e-5 -0.7504,-0.47209 -1.47567,-1.04891 z"
     id="path88" />
  <path
     style="fill:#808080;stroke-width:0.0599398"
     d=""
     id="path90" />
  <path
     style="fill:#808080;stroke-width:0.0599398"
     d=""
     id="path92" />
  <path
     style="fill:#808080;stroke-width:0.0599398"
     d=""
     id="path94" />
  <path
     style="fill:#808080;stroke-width:0.0599398"
     d=""
     id="path96" />
  <path
     style="fill:#808080;stroke-width:0.0149849"
     d=""
     id="path98" />
  <path
     style="fill:#808080;stroke-width:0.0149849"
     d="m 100.25846,99.089853 c -0.0402,-0.14317 -0.373963,-1.492091 -0.464386,-1.876864 -0.905132,-3.851537 -1.521552,-7.795742 -1.844262,-11.80064 -0.05408,-0.671178 -0.09183,-1.496493 -0.119932,-2.622365 -0.0046,-0.185438 -0.01243,-0.427362 -0.01733,-0.537607 -0.006,-0.134487 -0.0039,-0.197341 0.0064,-0.19101 0.0399,0.02466 0.08747,-0.04398 0.112969,-0.162987 0.0035,-0.01648 0.0073,0.111638 0.0083,0.284714 0.0077,1.313935 0.09696,3.128176 0.212596,4.323155 0.384161,3.969896 1.058069,7.847222 2.050395,11.796894 l 0.20612,0.820426 h -0.0707 c -0.0605,0 -0.072,-0.0049 -0.0801,-0.03372 z"
     id="path100" />
  <path
     style="fill:#808080;stroke-width:0.0149849"
     d="m 100.30056,99.109006 c -0.0369,-0.01494 -0.0645,-0.115424 -0.326999,-1.191725 -0.995068,-4.080135 -1.641781,-8.051444 -1.993676,-12.242696 -0.06908,-0.82283 -0.09585,-1.338868 -0.135645,-2.614872 -0.03014,-0.966391 -0.03,-0.983509 0.0078,-0.993387 0.01657,-0.0043 0.03938,-0.0299 0.0507,-0.05682 0.02275,-0.05409 0.01799,-0.161172 0.0539,1.215042 0.05375,2.060054 0.216689,3.939793 0.555938,6.413554 0.411332,2.999382 1.040656,6.190383 1.804792,9.151216 0.0451,0.174675 0.082,0.32134 0.082,0.325922 0,0.0123 -0.0627,0.0083 -0.0987,-0.0062 z"
     id="path102" />
  <path
     style="fill:#808080;stroke-width:0.0149849"
     d="m 100.17453,99.118116 c 0,-0.003 -0.0703,-0.284528 -0.1561,-0.625621 -0.625947,-2.486901 -1.156352,-5.103276 -1.588432,-7.835417 -0.195552,-1.236521 -0.284323,-2.033191 -0.398234,-3.573908 -0.06027,-0.815126 -0.09608,-1.598026 -0.05107,-1.116379 0.120418,1.288599 0.211981,2.143729 0.327378,3.05745 0.350897,2.778434 0.832482,5.4585 1.471446,8.188748 0.08015,0.342474 0.428342,1.751241 0.463892,1.876864 0.008,0.0288 0.004,0.03372 -0.0297,0.03372 -0.0216,0 -0.0392,-0.0025 -0.0392,-0.0055 z"
     id="path104" />
  <path
     style="fill:#808080;stroke-width:0.33907"
     d="m 13.252524,187.41973 v -10.34165 h 2.034423 2.034423 v 1.42279 1.4228 l 1.101979,-1.06654 c 2.998354,-2.90193 8.003902,-2.85659 10.964272,0.0993 l 1.38553,1.38345 1.541764,-1.39585 c 1.726551,-1.56315 3.447566,-2.20595 5.898628,-2.20315 3.535656,0.004 6.049559,1.5028 7.390272,4.40602 0.633101,1.37094 0.716268,2.29163 0.819321,9.07014 l 0.114696,7.54432 h -2.376702 -2.3767 l -0.109761,-6.86618 c -0.121301,-7.58815 -0.356679,-8.56672 -2.302619,-9.573 -1.408463,-0.72835 -4.014581,-0.65504 -5.334997,0.15007 -2.071028,1.26278 -2.292806,2.14354 -2.415406,9.59246 l -0.110219,6.69665 H 29.532594 27.55376 l -0.118931,-6.86618 c -0.13228,-7.6368 -0.362726,-8.56927 -2.374943,-9.60982 -1.707835,-0.88316 -4.755512,-0.52443 -6.045655,0.7116 -0.560457,0.53696 -1.169777,1.51899 -1.354046,2.1823 -0.184268,0.66331 -0.335884,3.99064 -0.336924,7.39406 l -0.0019,6.18804 h -2.034423 -2.034423 z"
     id="path55" />
  <path
     style="fill:#808080;stroke-width:0.33907"
     d="m 59.614141,198.07439 c -3.457527,-0.55298 -6.319466,-2.75987 -7.827241,-6.03571 -0.555475,-1.20684 -0.722155,-2.23183 -0.724705,-4.45655 -0.003,-2.58435 0.11422,-3.12797 1.110502,-5.1517 0.703503,-1.42902 1.612737,-2.65764 2.468172,-3.33515 3.849786,-3.04909 9.089141,-3.15221 12.100024,-0.23815 l 1.101979,1.06654 v -1.4228 -1.42279 h 2.203958 2.203958 v 10.34165 10.34165 H 70.04683 67.842872 v -1.22188 -1.22187 l -1.157665,1.01645 c -1.772968,1.55668 -4.312007,2.18159 -7.071066,1.74031 z m 5.203771,-4.49145 c 2.908319,-1.53795 4.215964,-5.95048 2.73167,-9.21776 -2.239787,-4.93029 -9.103622,-5.23849 -11.48941,-0.51588 -1.415975,2.80289 -0.859316,7.06899 1.160755,8.89575 1.916636,1.73323 5.21579,2.0971 7.596985,0.83789 z"
     id="path57" />
  <path
     style="fill:#808080;stroke-width:0.33907"
     d="m 83.190336,198.07748 c -1.827808,-0.23684 -6.192561,-1.82392 -6.192561,-2.25169 0,-0.25734 1.753097,-3.15047 1.909036,-3.15047 0.08208,0 0.489267,0.22279 0.904848,0.49509 0.415582,0.2723 1.742006,0.74779 2.94761,1.05665 4.61073,1.18122 8.790613,-0.32521 7.980921,-2.87632 -0.274958,-0.86632 -2.211406,-1.59628 -5.417645,-2.04223 -1.453489,-0.20216 -3.277739,-0.64847 -4.05389,-0.9918 -4.709799,-2.08337 -4.779294,-7.83899 -0.125781,-10.4172 1.686125,-0.93417 2.012111,-0.99095 5.687945,-0.99068 3.520088,2.5e-4 4.087885,0.0886 5.838308,0.9088 l 1.938998,0.90852 -0.894324,1.63423 c -0.491877,0.89882 -0.915775,1.66874 -0.941995,1.71094 -0.02622,0.0422 -0.877779,-0.24962 -1.892351,-0.64848 -1.288755,-0.50666 -2.645356,-0.73415 -4.501511,-0.75487 -2.50759,-0.028 -2.702819,0.0238 -3.475473,0.9217 -1.702842,1.97889 -0.642121,3.15981 3.280628,3.65237 6.484446,0.81421 9.052428,2.85254 8.715308,6.91776 -0.09138,1.1019 -0.43515,2.17003 -0.915543,2.84468 -1.700288,2.38784 -6.19768,3.6684 -10.792528,3.073 z"
     id="path59" />
  <path
     style="fill:#808080;stroke-width:0.33907"
     d="m 230.52925,198.06895 c -6.38249,-0.98706 -10.18756,-7.97126 -7.92437,-14.54519 0.85051,-2.47052 3.7387,-5.41263 6.10257,-6.21651 3.36646,-1.14482 7.16024,-0.45345 9.43357,1.71914 l 0.93245,0.89112 v -5.6581 -5.6581 h 2.03442 2.03442 v 14.58004 14.58003 h -2.03442 -2.03442 v -1.18675 c 0,-1.3638 -0.30574,-1.48231 -1.21897,-0.47253 -1.50422,1.66327 -4.34906,2.42712 -7.32525,1.96685 z m 5.51926,-4.48601 c 2.90832,-1.53795 4.21596,-5.95048 2.73167,-9.21776 -2.23979,-4.93029 -9.10362,-5.23849 -11.48941,-0.51588 -1.41598,2.80289 -0.85932,7.06899 1.16075,8.89575 1.91664,1.73323 5.21579,2.0971 7.59699,0.83789 z"
     id="path61" />
  <path
     style="fill:#808080;stroke-width:0.33907"
     d="m 207.53991,187.41973 v -10.34165 h 2.03442 2.03443 v 1.42509 1.4251 l 1.27151,-1.23538 c 0.69933,-0.67945 1.70105,-1.39703 2.22603,-1.59463 1.04023,-0.39151 4.97922,-0.49812 4.97922,-0.13475 0,0.12347 -0.25615,1.03709 -0.56922,2.03026 l -0.56921,1.80576 -1.72558,-0.20281 c -2.25244,-0.26473 -3.99865,0.44591 -4.82732,1.96454 -0.52721,0.96617 -0.63164,2.14177 -0.72521,8.1644 l -0.10932,7.03572 h -2.00987 -2.00988 z"
     id="path63" />
  <path
     style="fill:#808080;stroke-width:0.33907"
     d="m 188.18592,198.07474 c -6.96893,-1.07987 -10.68893,-9.01434 -7.40589,-15.7962 0.92378,-1.90828 3.64233,-4.32234 5.63034,-4.99972 3.2782,-1.117 7.09645,-0.4031 9.34684,1.74757 l 0.93245,0.89112 v -1.41971 -1.41972 h 2.03442 2.03442 v 10.34165 10.34165 h -2.03442 -2.03442 v -1.18675 c 0,-1.3638 -0.30574,-1.48231 -1.21897,-0.47253 -1.49634,1.65457 -4.35021,2.42736 -7.28477,1.97264 z m 5.47878,-4.4918 c 4.20344,-2.22283 4.45621,-9.37048 0.42779,-12.09695 -1.0247,-0.69353 -1.66226,-0.84767 -3.50602,-0.84767 -2.81598,0 -4.63015,1.04791 -5.7232,3.30585 -1.24534,2.57252 -0.82071,6.5697 0.90429,8.51232 1.69822,1.91246 5.40966,2.44186 7.89714,1.12645 z"
     id="path65" />
  <path
     style="fill:#808080;stroke-width:0.33907"
     d="m 167.60631,198.05717 c -3.63163,-0.59411 -6.4869,-2.74885 -8.00733,-6.04277 -0.55596,-1.20444 -0.71263,-2.21268 -0.71397,-4.59467 -0.001,-2.67097 0.11889,-3.29725 0.96511,-5.02058 1.16649,-2.3756 3.55122,-4.39763 6.06782,-5.14498 3.26401,-0.96931 8.19173,-0.42383 10.09519,1.11749 l 0.75231,0.60919 -0.71377,1.3991 c -0.39257,0.76951 -0.84323,1.47912 -1.00147,1.57691 -0.15824,0.0978 -0.90006,-0.12515 -1.64849,-0.49545 -3.57794,-1.77022 -7.65817,-0.82947 -9.41664,2.17113 -1.01441,1.73096 -1.25732,4.61782 -0.56505,6.71541 0.45467,1.37768 2.16027,3.14333 3.53827,3.66285 1.65336,0.62334 4.31971,0.42351 6.23259,-0.46711 l 1.76197,-0.82036 0.86582,1.47742 c 0.47621,0.81259 0.86583,1.61394 0.86583,1.78078 0,0.36546 -2.54352,1.66424 -3.72978,1.90452 -1.93364,0.39165 -3.66228,0.44696 -5.34841,0.17112 z"
     id="path67" />
  <path
     style="fill:#808080;stroke-width:0.33907"
     d="m 143.79466,187.41973 v -10.34165 h 2.20396 2.20396 v 1.42509 1.4251 l 1.27151,-1.23538 c 1.60273,-1.55717 2.66173,-1.95388 5.21575,-1.95388 1.77729,0 2.01356,0.0752 1.86443,0.59337 -0.0939,0.32635 -0.35679,1.24039 -0.58416,2.03119 l -0.41339,1.43782 -1.73348,-0.20374 c -2.26083,-0.26572 -4.00534,0.44274 -4.83523,1.96361 -0.52722,0.96617 -0.63164,2.14177 -0.72522,8.1644 l -0.10931,7.03572 h -2.17941 -2.17941 z"
     id="path69" />
  <path
     style="fill:#808080;stroke-width:0.33907"
     d="m 127.51928,198.09124 c -3.58073,-0.58585 -6.43163,-2.72234 -7.8609,-5.89102 -1.06811,-2.368 -1.09772,-7.0893 -0.0588,-9.37517 0.97952,-2.15516 2.64294,-3.93785 4.66798,-5.00272 1.49834,-0.78789 2.12821,-0.90796 4.77751,-0.91067 2.73012,-0.003 3.22073,0.0963 4.65649,0.94026 2.98846,1.7567 4.46779,4.44989 4.86758,8.86162 l 0.23298,2.57107 h -7.88777 -7.88778 l 0.20915,1.04575 c 0.76729,3.83646 5.85646,5.43604 10.469,3.29052 l 1.94708,-0.90569 1.00466,1.46023 1.00466,1.46022 -1.59546,0.85257 c -2.83032,1.51245 -5.75136,2.06034 -8.5464,1.60303 z m 6.76284,-13.63838 c -0.80813,-2.86996 -2.3198,-4.03252 -5.24344,-4.03252 -2.85731,0 -4.82025,1.42229 -5.5654,4.03252 l -0.31458,1.10198 h 5.71686 5.71686 z"
     id="path71" />
  <path
     style="fill:#808080;stroke-width:0.33907"
     d="m 108.34521,198.11102 c -2.17638,-0.32907 -3.61456,-1.34935 -4.54745,-3.22607 -0.77428,-1.55764 -0.8443,-2.12402 -0.97387,-7.8777 l -0.13961,-6.1994 h -1.993 -1.992994 v -1.86489 -1.86488 h 2.034424 2.03442 v -3.22117 -3.22117 h 2.20396 2.20396 v 3.22117 3.22117 h 3.72977 3.72978 v 1.86488 1.86489 h -3.75163 -3.75163 l 0.10662,5.92519 c 0.0998,5.54451 0.15368,5.97218 0.83906,6.65675 0.57823,0.57754 1.12509,0.72803 2.59755,0.7148 1.02582,-0.009 2.20028,-0.19613 2.60991,-0.41536 0.86179,-0.46121 1.11347,-0.25817 1.64291,1.32541 0.59536,1.78073 0.49924,1.97837 -1.22524,2.51931 -2.11411,0.66317 -3.67525,0.83134 -5.35694,0.57707 z"
     id="path73" />
</svg>
