<?xml version="1.0" encoding="UTF-8" standalone="no"?>
<svg
   xmlns:dc="http://purl.org/dc/elements/1.1/"
   xmlns:cc="http://creativecommons.org/ns#"
   xmlns:rdf="http://www.w3.org/1999/02/22-rdf-syntax-ns#"
   xmlns:svg="http://www.w3.org/2000/svg"
   xmlns="http://www.w3.org/2000/svg"
   xmlns:sodipodi="http://sodipodi.sourceforge.net/DTD/sodipodi-0.dtd"
   xmlns:inkscape="http://www.inkscape.org/namespaces/inkscape"
   version="1.1"
   id="svg8"
   inkscape:version="1.0.1 (3bc2e813f5, 2020-09-07)"
   sodipodi:docname="whatsapp.svg"
   x="0px"
   y="0px"
   viewBox="0 0 24 24"
   style="enable-background:new 0 0 24 24;"
   xml:space="preserve"><metadata
   id="metadata8"><rdf:RDF><cc:Work
       rdf:about=""><dc:format>image/svg+xml</dc:format><dc:type
         rdf:resource="http://purl.org/dc/dcmitype/StillImage" /></cc:Work></rdf:RDF></metadata><defs
   id="defs6" /><sodipodi:namedview
   pagecolor="#ffffff"
   bordercolor="#666666"
   borderopacity="1"
   objecttolerance="10"
   gridtolerance="10"
   guidetolerance="10"
   inkscape:pageopacity="0"
   inkscape:pageshadow="2"
   inkscape:window-width="1920"
   inkscape:window-height="1001"
   id="namedview4"
   showgrid="false"
   inkscape:zoom="16"
   inkscape:cx="-9.3981864"
   inkscape:cy="9.6315982"
   inkscape:window-x="-9"
   inkscape:window-y="-9"
   inkscape:window-maximized="1"
   inkscape:current-layer="svg8" />
<path
   id="path4"
   inkscape:connector-curvature="0"
   d="M16.6,14c-0.2-0.1-1.5-0.7-1.7-0.8c-0.2-0.1-0.4-0.1-0.6,0.1  c-0.2,0.2-0.6,0.8-0.8,1c-0.1,0.2-0.3,0.2-0.5,0.1c-0.7-0.3-1.4-0.7-2-1.2c-0.5-0.5-1-1.1-1.4-1.7c-0.1-0.2,0-0.4,0.1-0.5  c0.1-0.1,0.2-0.3,0.4-0.4c0.1-0.1,0.2-0.3,0.2-0.4c0.1-0.1,0.1-0.3,0-0.4c-0.1-0.1-0.6-1.3-0.8-1.8C9.4,7.3,9.2,7.3,9,7.3  c-0.1,0-0.3,0-0.5,0C8.3,7.3,8,7.5,7.9,7.6C7.3,8.2,7,8.9,7,9.7c0.1,0.9,0.4,1.8,1,2.6c1.1,1.6,2.5,2.9,4.2,3.7  c0.5,0.2,0.9,0.4,1.4,0.5c0.5,0.2,1,0.2,1.6,0.1c0.7-0.1,1.3-0.6,1.7-1.2c0.2-0.4,0.2-0.8,0.1-1.2C17,14.2,16.8,14.1,16.6,14   M19.1,4.9C15.2,1,8.9,1,5,4.9c-3.2,3.2-3.8,8.1-1.6,12L2,22l5.3-1.4c1.5,0.8,3.1,1.2,4.7,1.2h0c5.5,0,9.9-4.4,9.9-9.9  C22,9.3,20.9,6.8,19.1,4.9 M16.4,18.9c-1.3,0.8-2.8,1.3-4.4,1.3h0c-1.5,0-2.9-0.4-4.2-1.1l-0.3-0.2l-3.1,0.8l0.8-3l-0.2-0.3  C2.6,12.4,3.8,7.4,7.7,4.9S16.6,3.7,19,7.5C21.4,11.4,20.3,16.5,16.4,18.9" />
<path
   style="fill:#999999;stroke-width:0.0289157"
   d="m 2.0395979,21.942853 c 5.74e-4,-0.02158 0.3108749,-1.164781 0.6895577,-2.540443 L 3.4176697,16.901205 3.2498834,16.583133 C 2.7519064,15.639118 2.3729223,14.463416 2.2137387,13.368756 1.8863653,11.117503 2.3427146,8.7996078 3.4923451,6.8744423 5.1596978,4.0823017 8.0197079,2.2950903 11.257314,2.0221373 c 0.508115,-0.042838 1.527269,-0.020982 2.022016,0.043362 1.839295,0.2392077 3.553351,0.9654736 4.995369,2.1165975 1.443043,1.1519421 2.670637,2.9867253 3.22507,4.8202446 0.31467,1.0406186 0.420798,1.9443646 0.374209,3.1866376 -0.05689,1.51706 -0.365579,2.779414 -0.996729,4.076081 -1.503733,3.089348 -4.533562,5.167654 -7.990232,5.480886 -0.55833,0.05059 -1.728946,0.02132 -2.227871,-0.0557 C 9.5254947,21.515215 8.5016287,21.189691 7.4937247,20.683839 L 7.2958832,20.584545 4.7054686,21.26864 c -1.424728,0.376252 -2.6076271,0.6907 -2.6286645,0.698773 -0.021037,0.0081 -0.03778,-0.003 -0.037206,-0.02456 z M 13.152837,20.125805 c 1.473838,-0.223211 2.976624,-0.892833 4.144938,-1.846932 2.401612,-1.961265 3.45624,-5.089201 2.768387,-8.210793 C 19.972822,9.6444867 19.726213,8.9051153 19.536924,8.4813464 18.48816,6.1334299 16.329738,4.3644037 13.831779,3.8054538 13.238235,3.6726408 12.948267,3.63908 12.254379,3.6228859 11.364734,3.6021231 10.869816,3.6535177 10.077108,3.848984 9.0145955,4.1109792 7.8631214,4.6906374 6.9253012,5.4356209 6.5629613,5.7234555 5.8861041,6.3948185 5.6129196,6.7373494 4.6084644,7.9967803 3.9905938,9.4786907 3.7984686,11.089157 c -0.047326,0.396706 -0.04698,1.465216 5.997e-4,1.850602 0.154111,1.248267 0.6242544,2.598743 1.2261853,3.522186 l 0.1580758,0.24251 -0.4001496,1.499528 c -0.2200823,0.824741 -0.3968518,1.502827 -0.3928211,1.506858 0.00403,0.004 0.403632,-0.09525 0.8880032,-0.220634 0.4843709,-0.12538 1.1820998,-0.305698 1.5505082,-0.400708 l 0.6698336,-0.172746 0.1474641,0.09931 c 0.081105,0.05462 0.3029832,0.176836 0.4930621,0.271593 0.9692475,0.483183 2.0410381,0.792704 3.0965831,0.89426 0.447695,0.04307 1.457236,0.01353 1.917024,-0.05611 z"
   id="path10" /><path
   style="fill:#999999;stroke-width:0.0289157"
   d="M 14.126486,16.624533 C 13.612105,16.532618 12.564148,16.165373 11.981558,15.872868 10.642456,15.200536 9.3651342,14.100301 8.3413644,12.737349 7.5928382,11.740832 7.327147,11.209681 7.1105055,10.276705 6.9303933,9.5010435 7.0510255,8.8081214 7.4810166,8.1484568 7.7178362,7.7851434 7.9613784,7.5389833 8.2041901,7.4175095 8.4043146,7.3173914 8.4138635,7.3156627 8.7667668,7.3156627 c 0.4147495,0 0.4986099,0.028269 0.5847481,0.1971133 0.030633,0.060046 0.074532,0.2001796 0.097553,0.3114078 0.058015,0.2803033 0.6816451,1.769248 0.8258611,1.9717805 0.08926,0.1253489 0.102413,0.2189337 0.04833,0.3437537 -0.147768,0.341039 -0.191162,0.412814 -0.294847,0.487701 -0.108257,0.07819 -0.321362,0.316311 -0.4210312,0.470459 -0.031186,0.04823 -0.050508,0.134564 -0.050603,0.22609 -1.387e-4,0.136063 0.015325,0.169931 0.1907896,0.417835 0.4813996,0.680141 1.1056426,1.378189 1.4924896,1.66895 0.413135,0.310519 0.740887,0.507816 1.319853,0.794511 0.447278,0.221485 0.553787,0.263262 0.675558,0.264983 0.16944,0.0024 0.168223,0.0036 0.635357,-0.60407 0.361798,-0.470606 0.430929,-0.549101 0.561832,-0.637934 0.191089,-0.129677 0.243594,-0.114614 1.249984,0.35861 1.381422,0.649571 1.301313,0.605779 1.326836,0.725298 0.04067,0.190431 0.02487,0.670869 -0.02763,0.840224 -0.14046,0.453129 -0.80177,1.093057 -1.352936,1.309193 -0.374248,0.146758 -1.132724,0.229028 -1.50243,0.162965 z"
   id="path12" /><path
   style="fill:#999999;stroke-width:0.00390625"
   d="m 2.4633016,14.632549 c -0.00347,-0.0057 -0.054342,-0.199338 -0.080795,-0.307617 -0.1610538,-0.659233 -0.2483611,-1.277279 -0.2819749,-1.996094 -0.00654,-0.13995 -0.0065,-0.66124 6.77e-5,-0.796875 0.031801,-0.656737 0.1023185,-1.195468 0.2329007,-1.7792969 0.045597,-0.2038645 0.050063,-0.2205382 0.059432,-0.2218868 l 0.00822,-0.00118 -0.00928,0.038293 C 2.1219429,10.681383 2.0445631,11.827048 2.1621244,12.969463 2.216591,13.498749 2.3285941,14.08668 2.4718787,14.59544 l 0.011276,0.04004 h -0.00903 c -0.00496,0 -0.00984,-0.0013 -0.010826,-0.0029 z"
   id="path14" /><path
   style="fill:#999999;stroke-width:0.00390625"
   d="M 7.1482233,10.50313 C 7.0936459,10.295064 7.0475186,10.053654 7.0148068,9.8048878 7.0028952,9.7143025 7.002553,9.7077094 7.0046704,9.6095753 7.0174449,9.0175014 7.2118113,8.4628961 7.5772656,7.9757313 7.6971735,7.8158893 7.8638837,7.6297211 7.9501727,7.5592994 8.086125,7.4483467 8.2572152,7.3550563 8.393952,7.3173197 l 0.044922,-0.012397 0.3222656,-0.00116 c 0.354232,-0.00127 0.3695252,-4.882e-4 0.4271944,0.021905 0.1116711,0.043362 0.1911451,0.1616759 0.2484319,0.3698433 0.01604,0.058284 0.04459,0.1931968 0.048772,0.2304688 l 0.00219,0.019531 -0.00988,-0.027344 C 9.4724073,7.90313 9.4575737,7.8486378 9.4448804,7.7970753 9.3909463,7.5779848 9.3490467,7.4773906 9.284577,7.4122123 9.2024537,7.3291863 9.0980579,7.3121341 8.6937249,7.3157017 8.4095956,7.3182087 8.3941482,7.3211176 8.2298895,7.4030451 8.0872997,7.4741648 7.9885466,7.5455652 7.8632581,7.6681271 7.7072013,7.8207876 7.5519181,8.0224237 7.4164984,8.2482472 7.0484887,8.8619331 6.943261,9.5056959 7.0950111,10.215044 c 0.012226,0.05715 0.064567,0.275979 0.070775,0.295898 0.00155,0.005 -3.96e-5,0.0068 -0.00579,0.0068 -0.00587,0 -0.00892,-0.0038 -0.011768,-0.01465 z"
   id="path16" /><path
   style="fill:#999999;stroke-width:0.00390625"
   d="m 2.2047342,21.264884 c 0,-0.0014 0.2689453,-0.982249 0.5976563,-2.17968 0.3287109,-1.19743 0.5976562,-2.179944 0.5976562,-2.183363 0,-0.0034 -0.023447,-0.04882 -0.052105,-0.10088 -0.093347,-0.16959 -0.1872655,-0.352518 -0.2682064,-0.522397 -0.056784,-0.119179 -0.055977,-0.117188 -0.047481,-0.117188 0.00516,0 0.015774,0.01872 0.041536,0.07324 0.059649,0.126246 0.1281577,0.261682 0.2366545,0.467847 l 0.1048798,0.199291 -0.318311,1.156177 c -0.3773023,1.370447 -0.6620528,2.407623 -0.7882223,2.871021 -0.070137,0.257603 -0.092934,0.336232 -0.097761,0.337201 -0.00346,6.95e-4 -0.0063,1.23e-4 -0.0063,-0.0013 z"
   id="path18" /><path
   style="fill:#999999;stroke-width:0.00390625"
   d=""
   id="path20" /><path
   style="fill:#999999;stroke-width:0.00390625"
   d="m 4.4078592,19.647932 c 0,-0.01918 0.1714904,-0.670866 0.5493083,-2.087439 L 5.1856715,16.70375 5.124076,16.609321 C 5.0064536,16.429 4.9691587,16.370263 4.917901,16.284607 4.840485,16.155237 4.843759,16.161376 4.852186,16.161376 c 0.00509,0 0.014931,0.01384 0.034027,0.04785 0.065798,0.117173 0.1231386,0.209928 0.2138487,0.345921 l 0.097431,0.146069 -0.3933147,1.475196 c -0.2163231,0.811358 -0.3939907,1.475929 -0.3948169,1.476824 -8.262e-4,8.95e-4 -0.0015,-0.0015 -0.0015,-0.0053 z"
   id="path22" /><path
   style="fill:#999999;stroke-width:0.00390625"
   d="m 4.3946624,19.697509 c 0.00336,-0.014 0.00538,-0.01608 0.00538,-0.0055 0,0.0047 0.00154,0.0085 0.00343,0.0085 0.00189,0 0.6981947,-0.179297 1.5473501,-0.398438 0.8491553,-0.21914 1.5454669,-0.398437 1.5473589,-0.398437 0.00507,0 0.281088,0.184574 0.2790575,0.186604 -0.00321,0.0032 -0.097389,-0.05464 -0.1877446,-0.115336 l -0.089844,-0.06035 -0.2910156,0.07496 c -0.1600586,0.04123 -0.6469727,0.166953 -1.0820313,0.279386 -0.9995885,0.258324 -1.1918061,0.307715 -1.4042969,0.360837 -0.1715683,0.04289 -0.3199381,0.07858 -0.3266689,0.07858 -0.00196,0 -0.0024,-0.0048 -9.81e-4,-0.01074 z"
   id="path24" /></svg>
