<?xml version="1.0" encoding="UTF-8" standalone="no"?>
<svg
   xmlns:dc="http://purl.org/dc/elements/1.1/"
   xmlns:cc="http://creativecommons.org/ns#"
   xmlns:rdf="http://www.w3.org/1999/02/22-rdf-syntax-ns#"
   xmlns:svg="http://www.w3.org/2000/svg"
   xmlns="http://www.w3.org/2000/svg"
   xmlns:sodipodi="http://sodipodi.sourceforge.net/DTD/sodipodi-0.dtd"
   xmlns:inkscape="http://www.inkscape.org/namespaces/inkscape"
   version="1.1"
   width="16"
   height="16"
   viewBox="0 0 16 16"
   id="svg12"
   sodipodi:docname="youtube.svg"
   inkscape:version="1.0.1 (3bc2e813f5, 2020-09-07)">
  <defs
     id="defs16" />
  <sodipodi:namedview
     pagecolor="#ffffff"
     bordercolor="#666666"
     borderopacity="1"
     objecttolerance="10"
     gridtolerance="10"
     guidetolerance="10"
     inkscape:pageopacity="0"
     inkscape:pageshadow="2"
     inkscape:window-width="1920"
     inkscape:window-height="1001"
     id="namedview14"
     showgrid="false"
     inkscape:zoom="51.875"
     inkscape:cx="8"
     inkscape:cy="3.3349398"
     inkscape:window-x="-9"
     inkscape:window-y="-9"
     inkscape:window-maximized="1"
     inkscape:current-layer="svg12" />
  <path
     fill="#444"
     d="M6.6 0h-.9l-.6 2.3L4.5 0h-1c.2.6.4 1.1.6 1.7.3.8.5 1.5.5 1.9V6h.9V3.6L6.6 0zM9 4.5V3c0-.5-.1-.8-.3-1.1s-.5-.4-.9-.4-.7.2-.9.5c-.2.2-.3.5-.3 1v1.6c0 .5.1.8.3 1 .2.3.5.4.9.4s.7-.2.9-.5c.2-.1.3-.5.3-1zm-.8.2c0 .4-.1.6-.4.6s-.4-.2-.4-.6V2.8c0-.4.1-.6.4-.6s.4.2.4.6v1.9zM12 6V1.5h-.8v3.4c-.2.3-.3.4-.5.4-.1 0-.2-.1-.2-.2V1.5h-.8V5c0 .3 0 .5.1.7 0 .2.2.3.5.3s.6-.2.9-.5V6h.8z"
     id="path2" />
  <path
     fill="#444"
     d="M12.4 10.5c-.3 0-.4.2-.4.6v.4h.8v-.4c0-.4-.1-.6-.4-.6z"
     id="path4" />
  <path
     fill="#444"
     d="M9.5 10.5c-.1 0-.3.1-.4.2v2.7c.1.1.3.2.4.2.2 0 .3-.2.3-.6v-1.9c0-.4-.1-.6-.3-.6z"
     id="path6" />
  <path
     fill="#444"
     d="M14.4 8.3C14.2 7.6 13.6 7 13 7c-1.6-.2-3.3-.2-5-.2s-3.3 0-5 .2c-.6 0-1.2.6-1.4 1.3-.2 1-.2 2.1-.2 3.1s0 2.1.2 3.1c.2.7.7 1.2 1.4 1.3 1.7.2 3.3.2 5 .2s3.3 0 5-.2c.7-.1 1.3-.6 1.4-1.3.2-1 .2-2.1.2-3.1s0-2.1-.2-3.1zm-9.2.9h-1v5.1h-.9V9.2h-.9v-.9h2.8v.9zm2.4 5.1h-.8v-.5c-.3.4-.6.5-.9.5s-.4-.1-.5-.3c0-.1-.1-.3-.1-.7V9.8h.8v3.5c0 .1.1.2.2.2.2 0 .3-.1.5-.4V9.8h.8v4.5zm3-1.4c0 .4 0 .7-.1.9-.1.3-.3.5-.6.5s-.6-.2-.8-.5v.4h-.8V8.3h.8v1.9c.3-.3.5-.5.8-.5s.5.2.6.5c.1.2.1.5.1.9v1.8zm3-.7H12v.8c0 .4.1.6.4.6.2 0 .3-.1.4-.3v-.5h.8v.6c0 .2-.1.3-.2.5-.2.3-.5.5-1 .5-.4 0-.7-.2-1-.5-.2-.2-.3-.6-.3-1v-1.5c0-.5.1-.8.2-1 .2-.3.5-.5 1-.5.4 0 .7.2.9.5.2.2.2.6.2 1v.8z"
     id="path8" />
  <metadata
     id="metadata10">
    <rdf:RDF>
      <rdf:Description
         about="https://iconscout.com/legal#licenses"
         dc:title="youtube"
         dc:description="youtube"
         dc:publisher="Iconscout"
         dc:date="2017-09-19"
         dc:format="image/svg+xml"
         dc:language="en">
        <dc:creator>
          <rdf:Bag>
            <rdf:li>Vaadin Icons</rdf:li>
          </rdf:Bag>
        </dc:creator>
      </rdf:Description>
      <cc:Work
         rdf:about="">
        <dc:format>image/svg+xml</dc:format>
        <dc:type
           rdf:resource="http://purl.org/dc/dcmitype/StillImage" />
      </cc:Work>
    </rdf:RDF>
  </metadata>
  <path
     style="fill:#b3b3b3;stroke-width:0.0192771"
     d="M 6.3518072,15.979568 C 4.877179,15.959175 3.5786045,15.881852 2.9515302,15.777099 2.3512632,15.676824 1.8585836,15.236584 1.6484027,14.612671 1.5609881,14.353185 1.476134,13.689914 1.4362321,12.954217 1.4111197,12.491204 1.4114236,10.316688 1.4366685,9.8313253 1.4764407,9.0666593 1.5678378,8.3963058 1.6675877,8.1376457 1.7705043,7.8707741 1.9078943,7.6633455 2.1301182,7.4393268 2.3041823,7.2638568 2.3572997,7.2229245 2.5093928,7.147058 2.7292052,7.0374118 2.7786729,7.0272257 3.373494,6.969126 4.5311566,6.8560502 5.2796413,6.8259696 7.2963855,6.8114706 c 2.6665706,-0.019171 4.1844575,0.029339 5.5138795,0.176218 0.593736,0.065598 0.74073,0.12896 1.069253,0.4609057 0.328921,0.3323472 0.477549,0.6340356 0.558632,1.1339225 0.1156,0.7126913 0.144726,1.2781251 0.144759,2.8102542 1.9e-5,1.202218 -0.01408,1.66293 -0.06845,2.236145 -0.03308,0.348737 -0.123867,0.912703 -0.173782,1.079518 -0.16096,0.537926 -0.679248,0.965676 -1.295955,1.06957 -0.645255,0.108703 -1.871694,0.178242 -3.5796628,0.202966 -1.3264493,0.0192 -1.6333841,0.01906 -3.113253,-0.0014 z m 6.5019338,-1.637274 c 0.17035,-0.05804 0.366131,-0.194204 0.475697,-0.330843 0.04809,-0.05997 0.12887,-0.190088 0.179519,-0.289157 l 0.09209,-0.180125 -5.23e-4,-0.371085 L 13.6,12.8 h -0.404819 -0.40482 v 0.250985 c 0,0.231177 -0.0036,0.256726 -0.04591,0.323707 -0.07001,0.110908 -0.171654,0.190678 -0.262517,0.206029 -0.186064,0.03144 -0.328636,-0.03378 -0.406194,-0.185806 -0.05092,-0.09981 -0.07462,-0.358599 -0.07525,-0.821421 L 12,12.20241 h 0.703614 0.703615 L 13.406633,11.6 c -8.46e-4,-0.855926 -0.02034,-0.969778 -0.209778,-1.224857 -0.172143,-0.231797 -0.32841,-0.352731 -0.558618,-0.43231 C 12.531925,9.906083 12.472563,9.899 12.279518,9.900032 c -0.374366,0.002 -0.610835,0.089423 -0.831243,0.307306 -0.135291,0.13374 -0.199553,0.24903 -0.265332,0.476021 -0.08348,0.288065 -0.09239,0.451435 -0.0844,1.547966 0.0071,0.980689 0.0092,1.028214 0.0502,1.184338 0.06515,0.247801 0.143115,0.388337 0.301097,0.542758 0.221891,0.216888 0.436086,0.35259 0.65184,0.41297 0.159575,0.04466 0.583761,0.02825 0.752063,-0.0291 z M 4.2120482,11.759036 V 9.2144578 H 4.713253 5.2144578 V 8.7518072 8.2891566 H 3.8072289 2.4 V 8.7518072 9.2144578 H 2.8433735 3.286747 v 2.5445782 2.544578 h 0.4626506 0.4626506 z m 1.9591636,2.517781 c 0.1691518,-0.04504 0.3354336,-0.14687 0.4842099,-0.296529 l 0.139759,-0.140587 v 0.231957 0.231956 H 7.2 7.6048193 V 12.048193 9.7927711 H 7.2 6.7951807 v 1.6506539 1.650654 l -0.1001332,0.135073 c -0.055073,0.07429 -0.1338616,0.159505 -0.1750851,0.189367 -0.098608,0.07143 -0.2230944,0.09073 -0.2983765,0.04626 -0.1172349,-0.06925 -0.1102745,0.04443 -0.115952,-1.893697 L 6.1004247,9.7927711 H 5.6952916 5.2901585 l 0.00649,1.9228919 0.00649,1.922891 0.050069,0.196936 c 0.06984,0.274701 0.1493176,0.387208 0.3142637,0.444866 0.083816,0.0293 0.3884565,0.02716 0.5037419,-0.0035 z m 3.9934392,-0.02838 c 0.22604,-0.116963 0.388082,-0.419566 0.428113,-0.799471 0.02423,-0.229946 0.02423,-2.667988 0,-2.897934 -0.03997,-0.379315 -0.200355,-0.6793166 -0.428113,-0.8007845 -0.06949,-0.037062 -0.112013,-0.044123 -0.2658558,-0.04415 -0.1638473,-1.93e-5 -0.1947489,0.00585 -0.2934421,0.055825 -0.06067,0.030722 -0.1972968,0.1332377 -0.3036145,0.2278136 L 9.1084337,10.161693 V 9.2254248 8.2891566 H 8.7036145 8.2987952 v 2.9590364 2.959036 h 0.4048193 0.4048192 v -0.185232 -0.185231 l 0.076724,0.09285 c 0.1262539,0.152784 0.2912802,0.271831 0.4673438,0.337132 0.1403855,0.05207 0.3936385,0.04302 0.5121495,-0.01831 z"
     id="path18" />
  <path
     style="fill:#b3b3b3;stroke-width:0.0192771"
     d="m 9.339899,13.540699 c -0.058236,-0.02711 -0.1341399,-0.07084 -0.1686747,-0.09718 l -0.062791,-0.04789 v -1.34749 -1.347491 l 0.089753,-0.06175 c 0.1258127,-0.08656 0.2703541,-0.138318 0.3464278,-0.124046 0.07417,0.01391 0.1658185,0.111567 0.2027425,0.216027 0.020972,0.05933 0.026137,0.321578 0.026137,1.326954 v 1.253012 l -0.045686,0.101062 c -0.05048,0.111667 -0.1354805,0.178577 -0.2264691,0.178268 -0.030556,-9.6e-5 -0.1032039,-0.02237 -0.1614401,-0.04947 z"
     id="path20" />
  <path
     style="fill:#b3b3b3;stroke-width:0.0192771"
     d="m 12.007198,11.182484 c 0.01518,-0.355044 0.0453,-0.48221 0.135602,-0.572513 0.112749,-0.112749 0.325116,-0.132215 0.469422,-0.04303 0.04539,0.02805 0.08377,0.07694 0.117302,0.149424 0.04621,0.09987 0.0504,0.131983 0.05753,0.440262 l 0.0077,0.33253 h -0.400323 -0.400324 z"
     id="path22" />
  <path
     style="fill:#b3b3b3;stroke-width:0.0192771"
     d="M 4.6115063,4.6795181 C 4.6040777,3.4217706 4.6019109,3.3553797 4.5622835,3.1713116 4.4734403,2.7586385 4.3553134,2.3811345 4.0132907,1.4168675 3.6245408,0.32086236 3.5410745,0.08431829 3.528643,0.04337349 L 3.5154742,0 4.0035202,1.6836434e-4 4.4915663,3.3672675e-4 4.7898774,1.1486979 c 0.1640711,0.6315987 0.3028663,1.1511712 0.3084337,1.1546054 0.00557,0.00343 0.14504,-0.5112353 0.3099389,-1.1437102 L 5.7080663,0.00963855 6.1479439,0.00445136 C 6.5607431,-4.1652164e-4 6.587247,0.00136349 6.5784871,0.03336702 6.5733531,0.05212359 6.3250691,0.86583676 6.0267449,1.8416185 L 5.4843373,3.6157671 V 4.8054739 5.9951807 H 5.0518072 4.619277 Z"
     id="path24" />
  <path
     style="fill:#b3b3b3;stroke-width:0.0192771"
     d="M 7.5513496,5.9730824 C 7.2879262,5.9353145 7.1046497,5.832773 6.9302641,5.6255909 6.7839638,5.4517762 6.6921684,5.265643 6.6466966,5.0506024 6.6156924,4.9039807 6.6120482,4.7721937 6.6120482,3.7975904 c 0,-1.2006234 0.00601,-1.2747965 0.1239952,-1.5308157 C 6.8275485,2.0682189 7.063793,1.7943431 7.2473923,1.6739733 7.4215994,1.5597611 7.5920369,1.5139592 7.8361446,1.5157571 8.3241083,1.5193511 8.590826,1.6818888 8.7968401,2.1012048 8.9854093,2.4850145 8.9986477,2.6095774 8.9875462,3.8956189 8.9784584,4.9483798 8.9751821,4.9887161 8.8777349,5.2475861 8.848987,5.3239553 8.7966176,5.4006672 8.7072758,5.4972787 8.4815613,5.741359 8.4084366,5.8026789 8.2506024,5.8802298 8.0312258,5.9880191 7.8361769,6.0139192 7.5513496,5.9730824 Z M 8.0227951,5.2511557 c 0.079455,-0.058871 0.1353759,-0.1503902 0.1588912,-0.2600382 0.028427,-0.1325496 0.028427,-2.3508903 0,-2.4834399 -0.023526,-0.1096964 -0.07944,-0.2011693 -0.1590035,-0.260122 -0.045594,-0.033783 -0.082121,-0.040327 -0.2250924,-0.040327 -0.1423072,0 -0.1795128,0.0066 -0.2239014,0.039745 C 7.491416,2.3083996 7.4540877,2.3703274 7.421411,2.4996038 7.395489,2.6021565 7.392132,2.7808816 7.396972,3.8008087 c 0.00513,1.080282 0.00857,1.1897627 0.03991,1.2685214 0.071177,0.17887 0.1655067,0.2347541 0.3835031,0.2271998 0.1144504,-0.00397 0.1604357,-0.014275 0.20241,-0.045374 z"
     id="path26" />
  <path
     style="fill:#b3b3b3;stroke-width:0.0192771"
     d="M 10.11451,5.9745999 C 10.002393,5.9525268 9.8766188,5.8805259 9.8473945,5.8216867 9.8342294,5.7951807 9.799222,5.699759 9.7696002,5.6096386 L 9.7157424,5.4457831 9.7101147,3.4746988 9.7044871,1.5036145 h 0.3959489 0.39595 v 1.822954 c 0,1.3046573 0.0061,1.8349255 0.02153,1.8650602 0.03822,0.074732 0.09861,0.1086944 0.194079,0.1091474 0.163069,7.749e-4 0.250132,-0.057434 0.413405,-0.2763908 l 0.08424,-0.112964 V 3.2075179 1.5036145 H 11.604819 12 v 2.2457831 2.2457831 h -0.395181 -0.39518 V 5.7445783 c 0,-0.1378313 -0.0069,-0.2506024 -0.01536,-0.2506024 -0.0085,0 -0.04966,0.035327 -0.09157,0.078504 -0.04191,0.043177 -0.132587,0.1202096 -0.201502,0.1711834 -0.286151,0.2116534 -0.526408,0.2821814 -0.786695,0.2309369 z"
     id="path28" />
</svg>
